0
SECTION
2
HEADER
9
$INSUNITS
70
4
9
$ACADVER
1
AC1014
9
$HANDSEED
5
FFFF
0
ENDSEC
0
SECTION
2
TABLES
0
TABLE
2
VPORT
5
8
100
AcDbSymbolTable
0
ENDTAB
0
TABLE
2
LTYPE
5
5
100
AcDbSymbolTable
0
LTYPE
5
14
100
AcDbSymbolTableRecord
100
AcDbLinetypeTableRecord
2
BYBLOCK
70
0
0
LTYPE
5
15
100
AcDbSymbolTableRecord
100
AcDbLinetypeTableRecord
2
BYLAYER
70
0
0
ENDTAB
0
TABLE
2
LAYER
5
2
100
AcDbSymbolTable
70
2
0
LAYER
5
50
100
AcDbSymbolTableRecord
100
AcDbLayerTableRecord
2
0
70
0
6
CONTINUOUS
0
ENDTAB
0
TABLE
2
STYLE
5
3
100
AcDbSymbolTable
70
1
0
STYLE
5
11
100
AcDbSymbolTableRecord
100
AcDbTextStyleTableRecord
2
STANDARD
70
0
0
ENDTAB
0
TABLE
2
VIEW
5
6
100
AcDbSymbolTable
70
0
0
ENDTAB
0
TABLE
2
UCS
5
7
100
AcDbSymbolTable
70
0
0
ENDTAB
0
TABLE
2
APPID
5
9
100
AcDbSymbolTable
70
2
0
APPID
5
12
100
AcDbSymbolTableRecord
100
AcDbRegAppTableRecord
2
ACAD
70
0
0
ENDTAB
0
TABLE
2
DIMSTYLE
5
A
100
AcDbSymbolTable
70
1
0
ENDTAB
0
TABLE
2
BLOCK_RECORD
5
1
100
AcDbSymbolTable
70
1
0
BLOCK_RECORD
5
1F
100
AcDbSymbolTableRecord
100
AcDbBlockTableRecord
2
*MODEL_SPACE
0
BLOCK_RECORD
5
1B
100
AcDbSymbolTableRecord
100
AcDbBlockTableRecord
2
*PAPER_SPACE
0
ENDTAB
0
ENDSEC
0
SECTION
2
BLOCKS
0
BLOCK
5
20
100
AcDbEntity
100
AcDbBlockBegin
2
*MODEL_SPACE
0
ENDBLK
5
21
100
AcDbEntity
100
AcDbBlockEnd
0
BLOCK
5
1C
100
AcDbEntity
100
AcDbBlockBegin
2
*PAPER_SPACE
0
ENDBLK
5
1D
100
AcDbEntity
100
AcDbBlockEnd
0
ENDSEC
0
SECTION
2
ENTITIES
0
LINE
5
100
100
AcDbEntity
8
0
100
AcDbLine
10
8
20
3.5499999523160004
30
3.5581970703191246e-09
11
10.300000190730001
21
3.5499999523160004
31
3.5581970703191246e-09
0
LINE
5
101
100
AcDbEntity
8
0
100
AcDbLine
10
10.300000190730001
20
3.5499999523160004
30
3.5581970703191246e-09
11
10.300000190730001
21
7.6999998092649999
31
3.5581970703191246e-09
0
LINE
5
102
100
AcDbEntity
8
0
100
AcDbLine
10
10.300000190730001
20
7.6999998092649999
30
3.5581970703191246e-09
11
7.6999998092649999
21
10.300000190730001
31
3.5581970703191246e-09
0
LINE
5
103
100
AcDbEntity
8
0
100
AcDbLine
10
7.6999998092649999
20
10.300000190730001
30
3.5581970703191246e-09
11
-7.6999998092649999
21
10.300000190730001
31
3.5581970703191246e-09
0
LINE
5
104
100
AcDbEntity
8
0
100
AcDbLine
10
-7.6999998092649999
20
10.300000190730001
30
3.5581970703191246e-09
11
-10.300000190735002
21
7.6999998092649999
31
3.5581970703191246e-09
0
LINE
5
105
100
AcDbEntity
8
0
100
AcDbLine
10
-10.300000190735002
20
7.6999998092649999
30
3.5581970703191246e-09
11
-10.300000190735002
21
3.5499999523160004
31
3.5581970703191246e-09
0
LINE
5
106
100
AcDbEntity
8
0
100
AcDbLine
10
-10.300000190735002
20
3.5499999523160004
30
3.5581970703191246e-09
11
-8
21
3.5499999523160004
31
3.5581970703191246e-09
0
ARC
5
107
100
AcDbEntity
8
0
100
AcDbCircle
10
-7.9999997615809999
20
-2.22044604925e-16
30
3.5581970703191246e-09
40
3.549999952316
210
0
220
0
230
1
100
AcDbArc
50
-90.000003848000759
51
90.000003848000759
0
LINE
5
108
100
AcDbEntity
8
0
100
AcDbLine
10
-8
20
-3.549999952315992
30
3.5581970703191246e-09
11
-10.300000190735002
21
-3.5499999523160004
31
3.5581970703191246e-09
0
LINE
5
109
100
AcDbEntity
8
0
100
AcDbLine
10
-10.300000190735002
20
-3.5499999523160004
30
3.5581970703191246e-09
11
-10.300000190735002
21
-30.89999961853
31
3.5581970703191246e-09
0
LINE
5
110
100
AcDbEntity
8
0
100
AcDbLine
10
-10.300000190735002
20
-30.89999961853
30
3.5581970703191246e-09
11
-7.6999998092649999
21
-33.5
31
3.5581970703191246e-09
0
LINE
5
111
100
AcDbEntity
8
0
100
AcDbLine
10
-7.6999998092649999
20
-33.5
30
3.5581970703191246e-09
11
7.6999998092649999
21
-33.5
31
3.5581970703191246e-09
0
LINE
5
112
100
AcDbEntity
8
0
100
AcDbLine
10
7.6999998092649999
20
-33.5
30
3.5581970703191246e-09
11
10.300000190730001
21
-30.89999961853
31
3.5581970703191246e-09
0
LINE
5
113
100
AcDbEntity
8
0
100
AcDbLine
10
10.300000190730001
20
-30.89999961853
30
3.5581970703191246e-09
11
10.300000190730001
21
-3.5499999523160009
31
3.5581970703191246e-09
0
LINE
5
114
100
AcDbEntity
8
0
100
AcDbLine
10
10.300000190730001
20
-3.5499999523160009
30
3.5581970703191246e-09
11
8
21
-3.5499999523160004
31
3.5581970703191246e-09
0
ARC
5
115
100
AcDbEntity
8
0
100
AcDbCircle
10
7.9999997615809999
20
2.22044604925e-16
30
3.5581970703191246e-09
40
3.549999952316008
210
0
220
-0
230
1
100
AcDbArc
50
89.999996151999255
51
270.00000384800074
0
CIRCLE
5
116
100
AcDbEntity
8
0
100
AcDbCircle
10
2.9999813000000004
20
3.6559972600000004
30
3.5581970703191246e-09
40
0.34999930000000007
210
0
220
0
230
1
0
CIRCLE
5
117
100
AcDbEntity
8
0
100
AcDbCircle
10
0
20
0
30
0
40
2.799999952316
210
0
220
0
230
1
0
CIRCLE
5
118
100
AcDbEntity
8
0
100
AcDbCircle
10
0.99998022000000009
20
3.6559972600000004
30
3.5581970703191246e-09
40
0.3999992
210
0
220
0
230
1
0
CIRCLE
5
119
100
AcDbEntity
8
0
100
AcDbCircle
10
-1.0000183199999999
20
3.6559972600000004
30
3.5581970703191246e-09
40
0.3999992
210
0
220
0
230
1
0
CIRCLE
5
120
100
AcDbEntity
8
0
100
AcDbCircle
10
-3.0000194000000002
20
3.6559972600000004
30
3.5581970703191246e-09
40
0.34999930000000007
210
0
220
0
230
1
0
LINE
5
121
100
AcDbEntity
8
0
100
AcDbLine
10
10.300000190730001
20
3.5499999523160004
30
0
11
8
21
3.5499999523160004
31
0
0
ARC
5
122
100
AcDbEntity
8
0
100
AcDbCircle
10
7.9999997615809999
20
2.22044604925e-16
30
0
40
3.549999952316008
210
0
220
-0
230
1
100
AcDbArc
50
89.999996151999255
51
270.00000384800069
0
LINE
5
123
100
AcDbEntity
8
0
100
AcDbLine
10
7.9999999999999973
20
-3.549999952315992
30
0
11
10.300000190730001
21
-3.5499999523160004
31
0
0
LINE
5
124
100
AcDbEntity
8
0
100
AcDbLine
10
10.300000190730001
20
-3.5499999523160004
30
0
11
10.300000190730001
21
-30.89999961853
31
0
0
LINE
5
125
100
AcDbEntity
8
0
100
AcDbLine
10
10.300000190730001
20
-30.89999961853
30
0
11
7.6999998092625006
21
-33.499999999997499
31
0
0
LINE
5
126
100
AcDbEntity
8
0
100
AcDbLine
10
7.6999998092625006
20
-33.499999999997499
30
0
11
-7.6999998092649999
21
-33.5
31
0
0
LINE
5
127
100
AcDbEntity
8
0
100
AcDbLine
10
-7.6999998092649999
20
-33.5
30
0
11
-10.300000190735002
21
-30.89999961853
31
0
0
LINE
5
128
100
AcDbEntity
8
0
100
AcDbLine
10
-10.300000190735002
20
-30.89999961853
30
0
11
-10.300000190735002
21
-3.5499999523160009
31
0
0
LINE
5
129
100
AcDbEntity
8
0
100
AcDbLine
10
-10.300000190735002
20
-3.5499999523160009
30
0
11
-8
21
-3.5499999523160004
31
0
0
ARC
5
130
100
AcDbEntity
8
0
100
AcDbCircle
10
-7.9999997615809999
20
-2.22044604925e-16
30
0
40
3.549999952316008
210
0
220
0
230
1
100
AcDbArc
50
-90.000003848000759
51
90.000003848000716
0
LINE
5
131
100
AcDbEntity
8
0
100
AcDbLine
10
-7.9999999999999973
20
3.549999952315992
30
0
11
-10.300000190735002
21
3.5499999523160004
31
0
0
LINE
5
132
100
AcDbEntity
8
0
100
AcDbLine
10
-10.300000190735002
20
3.5499999523160004
30
0
11
-10.300000190735002
21
7.6999998092650017
31
0
0
LINE
5
133
100
AcDbEntity
8
0
100
AcDbLine
10
-10.300000190735002
20
7.6999998092650017
30
0
11
-7.699999809267501
21
10.300000190732501
31
0
0
LINE
5
134
100
AcDbEntity
8
0
100
AcDbLine
10
-7.699999809267501
20
10.300000190732501
30
0
11
7.6999998092649999
21
10.300000190730001
31
0
0
LINE
5
135
100
AcDbEntity
8
0
100
AcDbLine
10
7.6999998092649999
20
10.300000190730001
30
0
11
10.300000190730001
21
7.6999998092650017
31
0
0
LINE
5
136
100
AcDbEntity
8
0
100
AcDbLine
10
10.300000190730001
20
7.6999998092650017
30
0
11
10.300000190730001
21
3.5499999523160004
31
0
0
CIRCLE
5
137
100
AcDbEntity
8
0
100
AcDbCircle
10
2.9999813000000004
20
3.6559972600000004
30
0
40
0.34999930000000007
210
0
220
0
230
1
0
CIRCLE
5
138
100
AcDbEntity
8
0
100
AcDbCircle
10
0
20
0
30
0
40
2.799999952316
210
0
220
0
230
1
0
CIRCLE
5
139
100
AcDbEntity
8
0
100
AcDbCircle
10
0.99998022000000009
20
3.6559972600000004
30
0
40
0.3999992
210
0
220
0
230
1
0
CIRCLE
5
140
100
AcDbEntity
8
0
100
AcDbCircle
10
-1.0000183199999999
20
3.6559972600000004
30
0
40
0.3999992
210
0
220
0
230
1
0
CIRCLE
5
141
100
AcDbEntity
8
0
100
AcDbCircle
10
-3.0000194000000002
20
3.6559972600000004
30
0
40
0.34999930000000007
210
0
220
0
230
1
0
LWPOLYLINE
5
142
100
AcDbEntity
8
0
100
AcDbPolyline
90
4
70
1
43
0.0
10
9.5681439372999932
20
-34.275262687719987
10
8.1767784512399722
20
-32.883897201649994
42
-0.99999999999999989
10
8.8838852324199813
20
-32.176790420469985
10
10.275250718489989
20
-33.568155906529988
42
-0.091224427301734565
0
LWPOLYLINE
5
143
100
AcDbEntity
8
0
100
AcDbPolyline
90
4
70
1
43
0.0
10
-10.275247206610008
20
-33.568155906529988
10
-8.8838817205400122
20
-32.176790420469992
42
-0.99999999999999989
10
-8.1767749393600209
20
-32.883897201649994
10
-9.5681404254200153
20
-34.27526268771998
42
-0.091224427301734343
0
LWPOLYLINE
5
144
100
AcDbEntity
8
0
100
AcDbPolyline
90
4
70
1
43
0.0
10
10.275250718489986
20
9.5681284561900029
10
8.8838852324199635
20
8.1767629701300049
42
-0.99999999999999989
10
8.1767784512399899
20
8.8838697513100051
10
9.5681439372999897
20
10.27523523738
42
-0.091224427301734787
0
LWPOLYLINE
5
145
100
AcDbEntity
8
0
100
AcDbPolyline
90
4
70
1
43
0.0
10
-9.5681404254200153
20
10.27523523738
10
-8.1767749393600209
20
8.8838697513100087
42
-0.99999999999999989
10
-8.8838817205400122
20
8.1767629701299995
10
-10.275247206610015
20
9.5681284561900046
42
-0.091224427301734787
0
LWPOLYLINE
5
146
100
AcDbEntity
8
0
100
AcDbPolyline
90
4
70
1
43
0.0
10
-9.2020797720683074
20
-32.494988471991718
42
-0.99999999999999989
10
-8.4949729908917408
20
-33.202095253188254
10
-9.1870607765010366
20
-33.894183038801621
42
-0.11327194112951612
10
-9.894167557691647
20
-33.187076257611011
0
LWPOLYLINE
5
147
100
AcDbEntity
8
0
100
AcDbPolyline
90
4
70
1
43
0.0
10
8.4949765027699797
20
-33.202095253189988
10
9.1870642883799825
20
-33.894183038799987
42
0.11327194112951854
10
9.8941710695699925
20
-33.187076257609988
10
9.2020832839582631
20
-32.494988472001715
42
0.99999999999999989
0
LWPOLYLINE
5
148
100
AcDbEntity
8
0
100
AcDbPolyline
90
4
70
1
43
0.0
10
9.2020832839599898
20
8.4949610216600036
10
9.8941710695699925
20
9.1870488072700027
42
0.11327194112951408
10
9.1870642883799825
20
9.8941555884600021
10
8.4949765027717028
20
9.2020678028482692
42
0.99999999999999989
0
ARC
5
149
100
AcDbEntity
8
0
100
AcDbCircle
10
-8.8485263814800241
20
8.8485144122500046
30
-3.3087224502121113e-23
40
0.49999999999999983
210
8.5198002738076305e-36
220
8.5198002738072002e-36
230
1
100
AcDbArc
50
-135.00000000080993
51
44.999999999189932
0
LINE
5
150
100
AcDbEntity
8
0
100
AcDbLine
10
-9.2020797720782959
20
8.4949610216617284
30
-3.3087224502115088e-23
11
-9.8941675576900145
21
9.1870488072700027
31
-6.2442259915679912e-33
0
ARC
5
151
100
AcDbEntity
8
0
100
AcDbCircle
10
-7.9999982440600235
20
7.9999862748300066
30
0
40
2.2353959033309927
210
0
220
0
230
1
100
AcDbArc
50
122.0750816630626
51
147.92491833693717
0
LINE
5
152
100
AcDbEntity
8
0
100
AcDbLine
10
-9.1870607765010348
20
9.8941555884616363
30
0
11
-8.4949729908817524
21
9.202067802838279
31
-3.3087224502127137e-23
0
ARC
5
153
100
AcDbEntity
8
0
100
AcDbCircle
10
7.9999998669299899
20
-1.5614179995626642e-05
30
7.0689961793720188e-17
40
4.0215638771969999
210
-1.4965641272219467e-36
220
-1.5561356887846556e-37
230
1
100
AcDbArc
50
275.93631391494387
51
298.8711279481812
0
ELLIPSE
5
154
100
AcDbEntity
8
0
100
AcDbEllipse
10
7.9999998669299899
20
4.0119156847227373
30
7.1124926447025072e-17
11
1.7318018794140422e-14
21
-8.0263080476557231
31
0.0
40
0.86611333925672651
41
6.2233192283869059
42
6.3430513859702087
0
ARC
5
155
100
AcDbEntity
8
0
100
AcDbCircle
10
7.9999998669299899
20
-1.5614179995626642e-05
30
7.0689961793720188e-17
40
4.021563877196999
210
2.03212765356518e-53
220
-1.8682683912362583e-52
230
1
100
AcDbArc
50
186.20769469195722
51
264.06368608485315
0
SPLINE
5
156
100
AcDbEntity
8
0
100
AcDbSpline
70
0
71
3
72
14
73
10
74
0
42
0.000000001
43
0.0000000001
44
0.0000000001
40
0
40
0
40
0
40
0
40
0.33333333333330001
40
0.33333333333330001
40
0.33333333333330001
40
0.66666666666670005
40
0.66666666666670005
40
0.66666666666670005
40
1
40
1
40
1
40
1
10
4.0020166268197066
20
-0.43487884576002722
30
7.0642812498804665e-17
10
4.0054944502868572
20
-0.4310022245103351
30
7.0643209545498691e-17
10
4.0089774965635705
20
-0.42712486485001921
30
7.0643639679417218e-17
10
4.0124658030438809
20
-0.42324673236332266
30
7.0644069813335746e-17
10
4.0159541095241913
20
-0.41936859987662833
30
7.0644466860029771e-17
10
4.019447676270449
20
-0.41548969485042386
30
7.0644896993948299e-17
10
4.0229465453427871
20
-0.41161002013444747
30
7.0645327127866826e-17
10
4.0264454144151252
20
-0.40773034541847109
30
7.0645757261785354e-17
10
4.0299495858589829
20
-0.40384990124010312
30
7.0646154308479379e-17
10
4.0334591048029012
20
-0.39996871590071148
30
7.0646584442397907e-17
0
ARC
5
157
100
AcDbEntity
8
0
100
AcDbCircle
10
7.9999998669299899
20
-1.5614179995626642e-05
30
7.0689961793720188e-17
40
3.9866537473409998
210
1.2078775042074652e-36
220
1.1976305657257457e-35
230
1
100
AcDbArc
50
174.24087403170137
51
185.75777109671054
0
SPLINE
5
158
100
AcDbEntity
8
0
100
AcDbSpline
70
0
71
3
72
14
73
10
74
0
42
0.000000001
43
0.0000000001
44
0.0000000001
40
0
40
0
40
0
40
0
40
0.33333333333330001
40
0.33333333333330001
40
0.33333333333330001
40
0.66666666666670005
40
0.66666666666670005
40
0.66666666666670005
40
1
40
1
40
1
40
1
10
4.0334685635909651
20
0.40003128409990651
30
7.0733306057817966e-17
10
4.0299591281530134
20
0.40391246932070413
30
7.0733736191736494e-17
10
4.0264550399581545
20
0.40779291343640223
30
7.0734166325655022e-17
10
4.0229562538778829
20
0.41167258812306207
30
7.0734596459573549e-17
10
4.0194574677976114
20
0.41555226280972191
30
7.0734993506267575e-17
10
4.015963983786488
20
0.41943116783988543
30
7.0735423640186102e-17
10
4.0124757597866534
20
0.42330930035930914
30
7.073585377410463e-17
10
4.0089875357868188
20
0.4271874328787284
30
7.0736250820798655e-17
10
4.005504571735905
20
0.43106479260044628
30
7.0736680954717183e-17
10
4.0020268302446738
20
0.43494141395058472
30
7.073711108863571e-17
0
ARC
5
159
100
AcDbEntity
8
0
100
AcDbCircle
10
7.9999998669299899
20
-1.5614179995626642e-05
30
7.0689961793720188e-17
40
4.0215638771969999
210
0
220
-0
230
1
100
AcDbArc
50
61.128983529520063
51
173.79096109196826
0
SPLINE
5
160
100
AcDbEntity
8
0
100
AcDbSpline
70
4
71
2
72
6
73
3
74
0
42
0.000000001
43
0.0000000001
44
0.0000000001
40
0.099423246699652482
40
0.099423246699652482
40
0.099423246699652482
40
0.5094841765307524
40
0.5094841765307524
40
0.5094841765307524
41
1.0000000002307496
41
1.000000000613958
41
1.0000000002329708
10
9.9417696005105327
20
3.521703613715681
30
7.1071788364474665e-17
10
9.9325143615485523
20
3.4857493568934084
30
7.1067884071983415e-17
10
9.9232591231940326
20
3.4501378466812316
30
0
0
SPLINE
5
161
100
AcDbEntity
8
0
100
AcDbSpline
70
4
71
2
72
6
73
3
74
0
42
0.000000001
43
0.0000000001
44
0.0000000001
40
-0.50948418484732072
40
-0.50948418484732072
40
-0.50948418484732072
40
-0.099423254919864923
40
-0.099423254919864923
40
-0.099423254919864923
41
1
41
1
41
1
10
9.9232659006069213
20
-3.4501652970192542
30
0
10
9.9325211769163069
20
-3.4857768096022301
30
7.0312006428232458e-17
10
9.9417764525617791
20
-3.5217310640536734
30
7.030813522296571e-17
0
ARC
5
162
100
AcDbEntity
8
0
100
AcDbCircle
10
-7.9999918640700152
20
-1.7408669994445347e-05
30
7.0689961793720188e-17
40
4.0215593862179997
210
-1.4965651270806626e-36
220
-1.5560395275415885e-37
230
1
100
AcDbArc
50
275.93594576289206
51
353.79232406566723
0
ELLIPSE
5
163
100
AcDbEntity
8
0
100
AcDbEllipse
10
-7.9999918640700152
20
4.0119103000885037
30
7.1124926447025072e-17
11
1.7318019192847978e-14
21
-8.0263008651789036
31
0.0
40
0.86611333925672773
41
6.2233229455272143
42
6.3430476688298203
0
ARC
5
164
100
AcDbEntity
8
0
100
AcDbCircle
10
-7.9999918640700152
20
-1.7408669994445347e-05
30
7.0689961793720188e-17
40
4.0215593862179988
210
-5.2704786976611389e-36
220
2.9059887496008892e-36
230
1
100
AcDbArc
50
241.12893514642369
51
264.06405423689614
0
SPLINE
5
165
100
AcDbEntity
8
0
100
AcDbSpline
70
4
71
2
72
6
73
3
74
0
42
0.000000001
43
0.0000000001
44
0.0000000001
40
-0.51067589371624045
40
-0.51067589371624045
40
-0.51067589371624045
40
-0.10061496389729663
40
-0.10061496389729663
40
-0.10061496389729663
41
1
41
1
41
1
10
-9.9417624031301699
20
-3.5217310640540878
30
7.030813522296571e-17
10
-9.9325071482366489
20
-3.4857768082204608
30
7.0312006428232458e-17
10
-9.9232518933196001
20
-3.4501652970192165
30
0
0
SPLINE
5
166
100
AcDbEntity
8
0
100
AcDbSpline
70
4
71
2
72
6
73
3
74
0
42
0.000000001
43
0.0000000001
44
0.0000000001
40
0.10061496901664069
40
0.10061496901664069
40
0.10061496901664069
40
0.51067589879333752
40
0.51067589879333752
40
0.51067589879333752
41
1.0000000002886122
41
1.0000000007605925
41
1.0000000002858607
10
-9.9232386775515469
20
3.4501378466812582
30
0
10
-9.9324938592732614
20
3.4857493564031161
30
7.1067884071983415e-17
10
-9.9417490418243837
20
3.5217036137168733
30
7.1071788364474665e-17
0
ARC
5
167
100
AcDbEntity
8
0
100
AcDbCircle
10
-7.9999918640700152
20
-1.7408669994445347e-05
30
7.0689961793720188e-17
40
4.0215593862179988
210
2.0325766229135984e-53
220
-1.868263507221669e-52
230
1
100
AcDbArc
50
6.2090715863337245
51
118.87084747484964
0
SPLINE
5
168
100
AcDbEntity
8
0
100
AcDbSpline
70
0
71
3
72
14
73
10
74
0
42
0.000000001
43
0.0000000001
44
0.0000000001
40
0
40
0
40
0
40
0
40
0.33333333333330001
40
0.33333333333330001
40
0.33333333333330001
40
0.66666666666670005
40
0.66666666666670005
40
0.66666666666670005
40
1
40
1
40
1
40
1
10
-4.0020235400957116
20
0.4349414139504737
30
7.073711108863571e-17
10
-4.0055012795918188
20
0.43106479259980679
30
7.0736680954717183e-17
10
-4.0089842416474575
20
0.42718743287878835
30
7.0736250820798655e-17
10
-4.0124724636516884
20
0.42330930035966219
30
7.073585377410463e-17
10
-4.0159606856559193
20
0.41943116784053602
30
7.0735423640186102e-17
10
-4.0194541676711459
20
0.4155522628102748
30
7.0734993506267575e-17
10
-4.022952951755201
20
0.4116725881233374
30
7.0734596459573549e-17
10
-4.026451735839256
20
0.40779291343640223
30
7.0734166325655022e-17
10
-4.0299558220376408
20
0.40391246932024449
30
7.0733736191736494e-17
10
-4.0334652554790207
20
0.40003128410010635
30
7.0733306057817966e-17
0
ARC
5
169
100
AcDbEntity
8
0
100
AcDbCircle
10
-7.9999918640700152
20
-1.7408669994445347e-05
30
7.0689961793720188e-17
40
3.9866492563619986
210
2.0948351433789053e-53
220
2.0775628831371125e-52
230
1
100
AcDbArc
50
-5.7577516837456564
51
5.7591583990151598
0
SPLINE
5
170
100
AcDbEntity
8
0
100
AcDbSpline
70
0
71
3
72
14
73
10
74
0
42
0.000000001
43
0.0000000001
44
0.0000000001
40
0
40
0
40
0
40
0
40
0.33333333333330001
40
0.33333333333330001
40
0.33333333333330001
40
0.66666666666670005
40
0.66666666666670005
40
0.66666666666670005
40
1
40
1
40
1
40
1
10
-4.0334554347537832
20
-0.3999687158996168
30
7.0646584442397907e-17
10
-4.0299459146108951
20
-0.40384990123990105
30
7.0646154308479379e-17
10
-4.0264417419777399
20
-0.40773034541813802
30
7.0645757261785354e-17
10
-4.0229428717259896
20
-0.41161002013568426
30
7.0645327127866826e-17
10
-4.0194440014742305
20
-0.41548969485323051
30
7.0644896993948299e-17
10
-4.0159504335584284
20
-0.41936859988272124
30
7.0644466860029771e-17
10
-4.0124621259179705
20
-0.42324673237112531
30
7.0644069813335746e-17
10
-4.0089738182775125
20
-0.42712486485952939
30
7.0643639679417218e-17
10
-4.0054907708500487
20
-0.43100222451999404
30
7.0643209545498691e-17
10
-4.0020129462404874
20
-0.43487884575994729
30
7.0642812498804665e-17
0
ENDSEC
0
SECTION
2
OBJECTS
0
DICTIONARY
5
C
100
AcDbDictionary
3
ACAD_GROUP
350
D
3
ACAD_MLINESTYLE
350
17
0
DICTIONARY
5
D
100
AcDbDictionary
0
DICTIONARY
5
1A
330
C
100
AcDbDictionary
0
DICTIONARY
5
17
100
AcDbDictionary
0
ENDSEC
0
EOF
