0
SECTION
2
HEADER
9
$INSUNITS
70
4
9
$ACADVER
1
AC1014
9
$HANDSEED
5
FFFF
0
ENDSEC
0
SECTION
2
TABLES
0
TABLE
2
VPORT
5
8
100
AcDbSymbolTable
0
ENDTAB
0
TABLE
2
LTYPE
5
5
100
AcDbSymbolTable
0
LTYPE
5
14
100
AcDbSymbolTableRecord
100
AcDbLinetypeTableRecord
2
BYBLOCK
70
0
0
LTYPE
5
15
100
AcDbSymbolTableRecord
100
AcDbLinetypeTableRecord
2
BYLAYER
70
0
0
ENDTAB
0
TABLE
2
LAYER
5
2
100
AcDbSymbolTable
70
2
0
LAYER
5
50
100
AcDbSymbolTableRecord
100
AcDbLayerTableRecord
2
0
70
0
6
CONTINUOUS
0
ENDTAB
0
TABLE
2
STYLE
5
3
100
AcDbSymbolTable
70
1
0
STYLE
5
11
100
AcDbSymbolTableRecord
100
AcDbTextStyleTableRecord
2
STANDARD
70
0
0
ENDTAB
0
TABLE
2
VIEW
5
6
100
AcDbSymbolTable
70
0
0
ENDTAB
0
TABLE
2
UCS
5
7
100
AcDbSymbolTable
70
0
0
ENDTAB
0
TABLE
2
APPID
5
9
100
AcDbSymbolTable
70
2
0
APPID
5
12
100
AcDbSymbolTableRecord
100
AcDbRegAppTableRecord
2
ACAD
70
0
0
ENDTAB
0
TABLE
2
DIMSTYLE
5
A
100
AcDbSymbolTable
70
1
0
ENDTAB
0
TABLE
2
BLOCK_RECORD
5
1
100
AcDbSymbolTable
70
1
0
BLOCK_RECORD
5
1F
100
AcDbSymbolTableRecord
100
AcDbBlockTableRecord
2
*MODEL_SPACE
0
BLOCK_RECORD
5
1B
100
AcDbSymbolTableRecord
100
AcDbBlockTableRecord
2
*PAPER_SPACE
0
ENDTAB
0
ENDSEC
0
SECTION
2
BLOCKS
0
BLOCK
5
20
100
AcDbEntity
100
AcDbBlockBegin
2
*MODEL_SPACE
0
ENDBLK
5
21
100
AcDbEntity
100
AcDbBlockEnd
0
BLOCK
5
1C
100
AcDbEntity
100
AcDbBlockBegin
2
*PAPER_SPACE
0
ENDBLK
5
1D
100
AcDbEntity
100
AcDbBlockEnd
0
ENDSEC
0
SECTION
2
ENTITIES
0
LWPOLYLINE
5
100
100
AcDbEntity
8
0
100
AcDbPolyline
90
49
70
1
43
0.0
10
10
20
8.8000001907350001
10
10
20
-4.3000001907350001
10
8
20
-4.3000001907350001
42
0.99999999999999989
10
8
20
-11.699999809265
10
10
20
-11.699999809265
10
10
20
-20
10
9
20
-21
10
9
20
-27
10
10
20
-28.000000000000004
10
10
20
-33.200000762938998
10
9.6499996185302024
20
-33.200000762938998
42
1.0000029343887762
10
8.3500003814700001
20
-33.200000762938998
10
8.3500003814700001
20
-33.549999237061002
10
8.1000003814700001
20
-33.799999237061002
10
4.599999904633
20
-33.799999237061002
10
4.5500001907350001
20
-33.75
10
4.5500001907343668
20
-33.299999237061002
42
0.99999848280607173
10
3.4500000476840005
20
-33.299999237061002
10
3.4500000476840005
20
-33.75
10
3.400000095367
20
-33.799999237061002
10
-3.400000095367
20
-33.799999237061002
10
-3.4500000476840005
20
-33.75
10
-3.4500000476836332
20
-33.299999237061002
42
0.99999848282436599
10
-4.5500001907350001
20
-33.299999237061002
10
-4.5500001907350001
20
-33.75
10
-4.599999904633
20
-33.799999237061002
10
-8.1000003814700001
20
-33.799999237061002
10
-8.3500003814700001
20
-33.549999237061002
10
-8.3500003814697994
20
-33.200000762938998
42
1.0000029343887762
10
-9.6499996185299999
20
-33.200000762938998
10
-10
20
-33.200000762938998
10
-10
20
-28.000000000000004
10
-9
20
-27
10
-9
20
-21
10
-10
20
-20
10
-10
20
-11.699999809265
10
-8
20
-11.699999809265
42
0.99999999999999989
10
-8
20
-4.3000001907350001
10
-10
20
-4.3000001907349992
10
-10
20
9.6000003814700001
10
-9.6000003814700001
20
10
10
-4.5
20
10
10
-3.9140000343320001
20
9.4139995574949999
10
-1.4140000343320003
20
9.4139995574949999
42
-0.41442745988438251
10
1.4140000343320003
20
9.4139995574949999
10
3.9140000343320001
20
9.4139995574949999
10
4.5000000000000009
20
10
10
9.6000003814700001
20
10
10
10
20
9.6000003814700001
0
LWPOLYLINE
5
101
100
AcDbEntity
8
0
100
AcDbPolyline
90
4
70
1
43
0.0
10
0.99999999999999989
20
6
42
-0.99999999999999989
10
1.0000000000000002
20
4
10
-0.99999999999999989
20
4
42
-0.99999999999999989
10
-1.0000000000000002
20
6
0
CIRCLE
5
102
100
AcDbEntity
8
0
100
AcDbCircle
10
7.6200000000000001
20
7.6200000000000001
30
3.5581970703191246e-09
40
0.44999910000000004
210
0
220
0
230
1
0
CIRCLE
5
103
100
AcDbEntity
8
0
100
AcDbCircle
10
7.6200000000000001
20
5.0800000000000001
30
3.5581970703191246e-09
40
0.44999910000000004
210
0
220
0
230
1
0
CIRCLE
5
104
100
AcDbEntity
8
0
100
AcDbCircle
10
5.0800000000000001
20
7.0500011400000009
30
3.5581970703191246e-09
40
0.42500042000000005
210
0
220
0
230
1
0
CIRCLE
5
105
100
AcDbEntity
8
0
100
AcDbCircle
10
5.0800000000000001
20
4.51000114
30
3.5581970703191246e-09
40
0.42500042000000005
210
0
220
0
230
1
0
CIRCLE
5
106
100
AcDbEntity
8
0
100
AcDbCircle
10
7.6200000000000001
20
2.5399974600000004
30
3.5581970703191246e-09
40
0.44999910000000004
210
0
220
0
230
1
0
CIRCLE
5
107
100
AcDbEntity
8
0
100
AcDbCircle
10
7.6200000000000001
20
0
30
3.5581970703191246e-09
40
0.44999910000000004
210
0
220
0
230
1
0
CIRCLE
5
108
100
AcDbEntity
8
0
100
AcDbCircle
10
5.0800000000000001
20
1.9700011399999999
30
3.5581970703191246e-09
40
0.42500042000000005
210
0
220
0
230
1
0
CIRCLE
5
109
100
AcDbEntity
8
0
100
AcDbCircle
10
5.0800000000000001
20
-0.56999886
30
3.5581970703191246e-09
40
0.42500042000000005
210
0
220
0
230
1
0
CIRCLE
5
110
100
AcDbEntity
8
0
100
AcDbCircle
10
0
20
0
30
0
40
2.09999834
210
0
220
0
230
1
0
CIRCLE
5
111
100
AcDbEntity
8
0
100
AcDbCircle
10
0
20
8.0000017799999998
30
3.5581970703191246e-09
40
1.00000054
210
0
220
0
230
1
0
CIRCLE
5
112
100
AcDbEntity
8
0
100
AcDbCircle
10
-5.0800000000000001
20
4.51000114
30
3.5581970703191246e-09
40
0.42500042000000005
210
0
220
0
230
1
0
CIRCLE
5
113
100
AcDbEntity
8
0
100
AcDbCircle
10
-5.0800000000000001
20
7.0500011400000009
30
3.5581970703191246e-09
40
0.42500042000000005
210
0
220
0
230
1
0
CIRCLE
5
114
100
AcDbEntity
8
0
100
AcDbCircle
10
-7.6200000000000001
20
7.6200000000000001
30
3.5581970703191246e-09
40
0.44999910000000004
210
0
220
0
230
1
0
CIRCLE
5
115
100
AcDbEntity
8
0
100
AcDbCircle
10
-7.6200000000000001
20
2.5400025400000006
30
3.5581970703191246e-09
40
0.44999910000000004
210
0
220
0
230
1
0
CIRCLE
5
116
100
AcDbEntity
8
0
100
AcDbCircle
10
-7.6200000000000001
20
5.0800000000000001
30
3.5581970703191246e-09
40
0.44999910000000004
210
0
220
0
230
1
0
CIRCLE
5
117
100
AcDbEntity
8
0
100
AcDbCircle
10
-5.0800000000000001
20
1.9700011399999999
30
3.5581970703191246e-09
40
0.42500042000000005
210
0
220
0
230
1
0
CIRCLE
5
118
100
AcDbEntity
8
0
100
AcDbCircle
10
-5.0800000000000001
20
-0.56999886
30
3.5581970703191246e-09
40
0.42500042000000005
210
0
220
0
230
1
0
CIRCLE
5
119
100
AcDbEntity
8
0
100
AcDbCircle
10
-7.6200000000000001
20
0
30
3.5581970703191246e-09
40
0.44999910000000004
210
0
220
0
230
1
0
CIRCLE
5
120
100
AcDbEntity
8
0
100
AcDbCircle
10
-5.0800000000000001
20
-3.1099988600000006
30
3.5581970703191246e-09
40
0.42500042000000005
210
0
220
0
230
1
0
CIRCLE
5
121
100
AcDbEntity
8
0
100
AcDbCircle
10
-7.6200000000000001
20
-2.54
30
3.5581970703191246e-09
40
0.44999910000000004
210
0
220
0
230
1
0
LWPOLYLINE
5
122
100
AcDbEntity
8
0
100
AcDbPolyline
90
49
70
1
43
0.0
10
10
20
-4.3000001907350001
10
10
20
8.8000001907350001
10
10
20
9.6000003814700001
10
9.6000003814700001
20
10
10
4.5000000000000853
20
9.9999999999999147
10
3.9140000343320001
20
9.4139995574949999
10
1.4140000343322543
20
9.413999557495254
42
0.41442745988438257
10
-1.4140000343320003
20
9.4139995574949999
10
-3.9140000343319152
20
9.413999557495087
10
-4.5000000000000009
20
10
10
-9.6000003814700001
20
10
10
-10
20
9.6000003814700001
10
-10
20
-4.3000001907350001
10
-8
20
-4.3000001907350001
42
-0.99999999999999989
10
-8
20
-11.699999809265
10
-10
20
-11.699999809265002
10
-10
20
-20
10
-9
20
-21
10
-9
20
-27
10
-10
20
-28.000000000000004
10
-10
20
-33.200000762938998
10
-9.6499996185299999
20
-33.200000762946587
42
-1.0000029343887762
10
-8.3500003814700001
20
-33.200000762938998
10
-8.3500003814700001
20
-33.549999237061002
10
-8.1000003814700001
20
-33.799999237061002
10
-4.5999999046330977
20
-33.799999237060902
10
-4.5500001907350001
20
-33.75
10
-4.550000190734
20
-33.2999992370762
42
-0.99999848280607173
10
-3.4500000476840005
20
-33.299999237061002
10
-3.4500000476838477
20
-33.749999999999851
10
-3.4000000953669995
20
-33.799999237061002
10
3.4000000953671528
20
-33.799999237061151
10
3.4500000476840005
20
-33.75
10
3.4500000476829999
20
-33.299999237096323
42
-0.99999848282436599
10
4.5500001907350001
20
-33.299999237061002
10
4.5500001907349024
20
-33.750000000000099
10
4.599999904633
20
-33.799999237061002
10
8.1000003814700019
20
-33.799999237061002
10
8.3500003814700001
20
-33.549999237061002
10
8.3500003814700001
20
-33.200000762946587
42
-1.0000029343887762
10
9.6499996185299999
20
-33.200000762938998
10
10
20
-33.200000762938998
10
10
20
-28.000000000000004
10
9
20
-27
10
9
20
-21
10
10
20
-20
10
10
20
-11.699999809265
10
8
20
-11.699999809265
42
-0.99999999999999989
10
8
20
-4.3000001907350001
0
CIRCLE
5
123
100
AcDbEntity
8
0
100
AcDbCircle
10
7.6200000000000001
20
7.6200000000000001
30
0
40
0.44999910000000004
210
0
220
0
230
1
0
CIRCLE
5
124
100
AcDbEntity
8
0
100
AcDbCircle
10
7.6200000000000001
20
5.0800000000000001
30
0
40
0.44999910000000004
210
0
220
0
230
1
0
CIRCLE
5
125
100
AcDbEntity
8
0
100
AcDbCircle
10
5.0800000000000001
20
7.0500011400000009
30
0
40
0.42500042000000005
210
0
220
0
230
1
0
CIRCLE
5
126
100
AcDbEntity
8
0
100
AcDbCircle
10
5.0800000000000001
20
4.51000114
30
0
40
0.42500042000000005
210
0
220
0
230
1
0
LWPOLYLINE
5
127
100
AcDbEntity
8
0
100
AcDbPolyline
90
4
70
1
43
0.0
10
1
20
6
42
-0.99999999999999989
10
1
20
4
10
-1
20
4
42
-0.99999999999999989
10
-1
20
6
0
CIRCLE
5
128
100
AcDbEntity
8
0
100
AcDbCircle
10
7.6200000000000001
20
2.5399974600000004
30
0
40
0.44999910000000004
210
0
220
0
230
1
0
CIRCLE
5
129
100
AcDbEntity
8
0
100
AcDbCircle
10
7.6200000000000001
20
0
30
0
40
0.44999910000000004
210
0
220
0
230
1
0
CIRCLE
5
130
100
AcDbEntity
8
0
100
AcDbCircle
10
5.0800000000000001
20
1.9700011399999999
30
0
40
0.42500042000000005
210
0
220
0
230
1
0
CIRCLE
5
131
100
AcDbEntity
8
0
100
AcDbCircle
10
5.0800000000000001
20
-0.56999886
30
0
40
0.42500042000000005
210
0
220
0
230
1
0
CIRCLE
5
132
100
AcDbEntity
8
0
100
AcDbCircle
10
0
20
0
30
0
40
2.09999834
210
0
220
0
230
1
0
CIRCLE
5
133
100
AcDbEntity
8
0
100
AcDbCircle
10
0
20
8.0000017799999998
30
0
40
1.00000054
210
0
220
0
230
1
0
CIRCLE
5
134
100
AcDbEntity
8
0
100
AcDbCircle
10
-5.0800000000000001
20
4.51000114
30
0
40
0.42500042000000005
210
0
220
0
230
1
0
CIRCLE
5
135
100
AcDbEntity
8
0
100
AcDbCircle
10
-5.0800000000000001
20
7.0500011400000009
30
0
40
0.42500042000000005
210
0
220
0
230
1
0
CIRCLE
5
136
100
AcDbEntity
8
0
100
AcDbCircle
10
-7.6200000000000001
20
7.6200000000000001
30
0
40
0.44999910000000004
210
0
220
0
230
1
0
CIRCLE
5
137
100
AcDbEntity
8
0
100
AcDbCircle
10
-7.6200000000000001
20
2.5400025400000006
30
0
40
0.44999910000000004
210
0
220
0
230
1
0
CIRCLE
5
138
100
AcDbEntity
8
0
100
AcDbCircle
10
-7.6200000000000001
20
5.0800000000000001
30
0
40
0.44999910000000004
210
0
220
0
230
1
0
CIRCLE
5
139
100
AcDbEntity
8
0
100
AcDbCircle
10
-5.0800000000000001
20
1.9700011399999999
30
0
40
0.42500042000000005
210
0
220
0
230
1
0
CIRCLE
5
140
100
AcDbEntity
8
0
100
AcDbCircle
10
-5.0800000000000001
20
-0.56999886
30
0
40
0.42500042000000005
210
0
220
0
230
1
0
CIRCLE
5
141
100
AcDbEntity
8
0
100
AcDbCircle
10
-7.6200000000000001
20
0
30
0
40
0.44999910000000004
210
0
220
0
230
1
0
CIRCLE
5
142
100
AcDbEntity
8
0
100
AcDbCircle
10
-5.0800000000000001
20
-3.1099988600000006
30
0
40
0.42500042000000005
210
0
220
0
230
1
0
CIRCLE
5
143
100
AcDbEntity
8
0
100
AcDbCircle
10
-7.6200000000000001
20
-2.54
30
0
40
0.44999910000000004
210
0
220
0
230
1
0
ENDSEC
0
SECTION
2
OBJECTS
0
DICTIONARY
5
C
100
AcDbDictionary
3
ACAD_GROUP
350
D
3
ACAD_MLINESTYLE
350
17
0
DICTIONARY
5
D
100
AcDbDictionary
0
DICTIONARY
5
1A
330
C
100
AcDbDictionary
0
DICTIONARY
5
17
100
AcDbDictionary
0
ENDSEC
0
EOF
