0
SECTION
2
HEADER
9
$INSUNITS
70
4
9
$ACADVER
1
AC1014
9
$HANDSEED
5
FFFF
0
ENDSEC
0
SECTION
2
TABLES
0
TABLE
2
VPORT
5
8
100
AcDbSymbolTable
0
ENDTAB
0
TABLE
2
LTYPE
5
5
100
AcDbSymbolTable
0
LTYPE
5
14
100
AcDbSymbolTableRecord
100
AcDbLinetypeTableRecord
2
BYBLOCK
70
0
0
LTYPE
5
15
100
AcDbSymbolTableRecord
100
AcDbLinetypeTableRecord
2
BYLAYER
70
0
0
ENDTAB
0
TABLE
2
LAYER
5
2
100
AcDbSymbolTable
70
2
0
LAYER
5
50
100
AcDbSymbolTableRecord
100
AcDbLayerTableRecord
2
0
70
0
6
CONTINUOUS
0
ENDTAB
0
TABLE
2
STYLE
5
3
100
AcDbSymbolTable
70
1
0
STYLE
5
11
100
AcDbSymbolTableRecord
100
AcDbTextStyleTableRecord
2
STANDARD
70
0
0
ENDTAB
0
TABLE
2
VIEW
5
6
100
AcDbSymbolTable
70
0
0
ENDTAB
0
TABLE
2
UCS
5
7
100
AcDbSymbolTable
70
0
0
ENDTAB
0
TABLE
2
APPID
5
9
100
AcDbSymbolTable
70
2
0
APPID
5
12
100
AcDbSymbolTableRecord
100
AcDbRegAppTableRecord
2
ACAD
70
0
0
ENDTAB
0
TABLE
2
DIMSTYLE
5
A
100
AcDbSymbolTable
70
1
0
ENDTAB
0
TABLE
2
BLOCK_RECORD
5
1
100
AcDbSymbolTable
70
1
0
BLOCK_RECORD
5
1F
100
AcDbSymbolTableRecord
100
AcDbBlockTableRecord
2
*MODEL_SPACE
0
BLOCK_RECORD
5
1B
100
AcDbSymbolTableRecord
100
AcDbBlockTableRecord
2
*PAPER_SPACE
0
ENDTAB
0
ENDSEC
0
SECTION
2
BLOCKS
0
BLOCK
5
20
100
AcDbEntity
100
AcDbBlockBegin
2
*MODEL_SPACE
0
ENDBLK
5
21
100
AcDbEntity
100
AcDbBlockEnd
0
BLOCK
5
1C
100
AcDbEntity
100
AcDbBlockBegin
2
*PAPER_SPACE
0
ENDBLK
5
1D
100
AcDbEntity
100
AcDbBlockEnd
0
ENDSEC
0
SECTION
2
ENTITIES
0
LINE
5
100
100
AcDbEntity
8
0
100
AcDbLine
10
-5.0715577602386475
20
-4.8883588612083937
30
-9.1240209831866537e-10
11
-7.6715576648716475
21
-2.2883589565753937
31
-9.1240209831866537e-10
0
LINE
5
101
100
AcDbEntity
8
0
100
AcDbLine
10
-7.6715576648716475
20
-2.2883589565753937
30
-9.1240209831866537e-10
11
-23.071557760238647
21
-2.2883589565753937
31
-9.1240209831866537e-10
0
LINE
5
102
100
AcDbEntity
8
0
100
AcDbLine
10
-23.071557760238647
20
-2.2883589565753937
30
-9.1240209831866537e-10
11
-25.671558141708651
21
-4.8883588612083937
31
-9.1240209831866537e-10
0
LINE
5
103
100
AcDbEntity
8
0
100
AcDbLine
10
-25.671558141708651
20
-4.8883588612083937
30
-9.1240209831866537e-10
11
-25.671558141708651
21
-9.0383589565753937
31
-9.1240223709654344e-10
0
LINE
5
104
100
AcDbEntity
8
0
100
AcDbLine
10
-25.671558141708651
20
-9.0383589565753937
30
-9.1240223709654344e-10
11
-23.371556997299649
21
-9.0383589565753937
31
-9.1240223709654344e-10
0
ARC
5
105
100
AcDbEntity
8
0
100
AcDbCircle
10
-23.371557950973649
20
-12.588359147310396
30
-9.1240223709654344e-10
40
3.5500001907350005
210
0
220
0
230
1
100
AcDbArc
50
-89.999984608030346
51
89.999984608030346
0
LINE
5
106
100
AcDbEntity
8
0
100
AcDbLine
10
-23.371556997299649
20
-16.138359338045266
30
-9.1240223709654344e-10
11
-25.671558141708651
21
-16.138359338045394
31
-9.1240223709654344e-10
0
LINE
5
107
100
AcDbEntity
8
0
100
AcDbLine
10
-25.671558141708651
20
-16.138359338045394
30
-9.1240223709654344e-10
11
-25.671558141708651
21
-28.188358575105394
31
-9.124025146522996e-10
0
LINE
5
108
100
AcDbEntity
8
0
100
AcDbLine
10
-25.671558141708651
20
-28.188358575105394
30
-9.124025146522996e-10
11
-23.071557760238647
21
-30.788358956575394
31
-9.124025146522996e-10
0
LINE
5
109
100
AcDbEntity
8
0
100
AcDbLine
10
-23.071557760238647
20
-30.788358956575394
30
-9.124025146522996e-10
11
-7.6715576648716466
21
-30.788358956575394
31
-9.124025146522996e-10
0
LINE
5
110
100
AcDbEntity
8
0
100
AcDbLine
10
-7.6715576648716466
20
-30.788358956575394
30
-9.124025146522996e-10
11
-5.0715577602386466
21
-28.188358575105394
31
-9.124025146522996e-10
0
LINE
5
111
100
AcDbEntity
8
0
100
AcDbLine
10
-5.0715577602386466
20
-28.188358575105394
30
-9.124025146522996e-10
11
-5.0715577602386466
21
-16.138359338045394
31
-9.1240223709654344e-10
0
LINE
5
112
100
AcDbEntity
8
0
100
AcDbLine
10
-5.0715577602386466
20
-16.138359338045394
30
-9.1240223709654344e-10
11
-7.3715577125546456
21
-16.138359338045394
31
-9.1240223709654344e-10
0
ARC
5
113
100
AcDbEntity
8
0
100
AcDbCircle
10
-7.3715574741366474
20
-12.588359147310396
30
-9.1240223709654344e-10
40
3.5500001907350001
210
0
220
0
230
1
100
AcDbArc
50
90.00000384798436
51
269.99999615201568
0
LINE
5
114
100
AcDbEntity
8
0
100
AcDbLine
10
-7.3715577125546483
20
-9.0383589565754026
30
-9.1240223709654344e-10
11
-5.0715577602386475
21
-9.0383589565753937
31
-9.1240223709654344e-10
0
LINE
5
115
100
AcDbEntity
8
0
100
AcDbLine
10
-5.0715577602386475
20
-9.0383589565753937
30
-9.1240223709654344e-10
11
-5.0715577602386475
21
-4.8883588612083937
31
-9.1240209831866537e-10
0
CIRCLE
5
116
100
AcDbEntity
8
0
100
AcDbCircle
10
-12.371571100238647
20
-8.9323588765753943
30
-9.1240223709654344e-10
40
0.34999930000000007
210
0
220
0
230
1
0
CIRCLE
5
117
100
AcDbEntity
8
0
100
AcDbCircle
10
-15.371557950973649
20
-12.588359147310396
30
-9.1240223709654344e-10
40
2.799999952316
210
0
220
0
230
1
0
CIRCLE
5
118
100
AcDbEntity
8
0
100
AcDbCircle
10
-14.371572180238648
20
-8.9323588765753943
30
-9.1240223709654344e-10
40
0.3999992
210
0
220
0
230
1
0
CIRCLE
5
119
100
AcDbEntity
8
0
100
AcDbCircle
10
-16.371570720238648
20
-8.9323588765753943
30
-9.1240223709654344e-10
40
0.3999992
210
0
220
0
230
1
0
CIRCLE
5
120
100
AcDbEntity
8
0
100
AcDbCircle
10
-18.371571800238648
20
-8.9323588765753943
30
-9.1240223709654344e-10
40
0.34999930000000007
210
0
220
0
230
1
0
LINE
5
121
100
AcDbEntity
8
0
100
AcDbLine
10
-5.0715577602386475
20
-4.8883588612083937
30
0
11
-7.6715576648716466
21
-2.2883589565753941
31
3.6082246976834623e-17
0
LINE
5
122
100
AcDbEntity
8
0
100
AcDbLine
10
-7.6715576648716466
20
-2.2883589565753941
30
3.6082246976834623e-17
11
-23.071557760238647
21
-2.2883589565753937
31
1.8981965649429497e-31
0
LINE
5
123
100
AcDbEntity
8
0
100
AcDbLine
10
-23.071557760238647
20
-2.2883589565753937
30
1.8981965649429497e-31
11
-25.671558141709454
21
-4.8883588612075881
31
-3.6082246976823381e-17
0
LINE
5
124
100
AcDbEntity
8
0
100
AcDbLine
10
-25.671558141709454
20
-4.8883588612075881
30
-3.6082246976823381e-17
11
-25.671558141708651
21
-9.0383589565753937
31
-5.7592820725912985e-17
0
LINE
5
125
100
AcDbEntity
8
0
100
AcDbLine
10
-25.671558141708651
20
-9.0383589565753937
30
-5.7592820725912985e-17
11
-23.371556997299649
21
-9.0383589565753937
31
-2.8349702887310116e-32
0
ARC
5
126
100
AcDbEntity
8
0
100
AcDbCircle
10
-23.371557950973649
20
-12.588359147310396
30
0
40
3.5500001907350005
210
0
220
0
230
1
100
AcDbArc
50
-89.999984608030388
51
89.999984608030346
0
LINE
5
127
100
AcDbEntity
8
0
100
AcDbLine
10
-23.371556997299653
20
-16.138359338045266
30
0
11
-25.671558141708644
21
-16.138359338045394
31
1.3877787807814459e-16
0
LINE
5
128
100
AcDbEntity
8
0
100
AcDbLine
10
-25.671558141708644
20
-16.138359338045394
30
1.3877787807814459e-16
11
-25.671558141708651
21
-28.188358575105394
31
1.1032842366004435e-16
0
LINE
5
129
100
AcDbEntity
8
0
100
AcDbLine
10
-25.671558141708651
20
-28.188358575105394
30
1.1032842366004435e-16
11
-23.071557760238651
21
-30.788358956575394
31
-3.6082253594277335e-17
0
LINE
5
130
100
AcDbEntity
8
0
100
AcDbLine
10
-23.071557760238651
20
-30.788358956575394
30
-3.6082253594277335e-17
11
-7.6715576648716466
21
-30.788358956575394
31
-1.8981965649429497e-31
0
LINE
5
131
100
AcDbEntity
8
0
100
AcDbLine
10
-7.6715576648716466
20
-30.788358956575394
30
-1.8981965649429497e-31
11
-5.0715577602394539
21
-28.188358575104587
31
3.608225359428849e-17
0
LINE
5
132
100
AcDbEntity
8
0
100
AcDbLine
10
-5.0715577602394539
20
-28.188358575104587
30
3.608225359428849e-17
11
-5.0715577602386475
21
-16.138359338045394
31
2.8449454418100215e-17
0
LINE
5
133
100
AcDbEntity
8
0
100
AcDbLine
10
-5.0715577602386475
20
-16.138359338045394
30
2.8449454418100215e-17
11
-7.3715577125546456
21
-16.138359338045394
31
1.3877787807814459e-16
0
ARC
5
134
100
AcDbEntity
8
0
100
AcDbCircle
10
-7.3715574741366492
20
-12.588359147310396
30
0
40
3.5500001907350001
210
0
220
0
230
1
100
AcDbArc
50
90.000003847984331
51
269.99999615201568
0
LINE
5
135
100
AcDbEntity
8
0
100
AcDbLine
10
-7.3715577125546474
20
-9.0383589565754026
30
0
11
-5.0715577602386475
21
-9.0383589565753937
31
-2.8349688193629433e-32
0
LINE
5
136
100
AcDbEntity
8
0
100
AcDbLine
10
-5.0715577602386475
20
-9.0383589565753937
30
-2.8349688193629433e-32
11
-5.0715577602386475
21
-4.8883588612083937
31
0
0
CIRCLE
5
137
100
AcDbEntity
8
0
100
AcDbCircle
10
-12.371571100238647
20
-8.9323588765753943
30
0
40
0.34999930000000007
210
0
220
0
230
1
0
CIRCLE
5
138
100
AcDbEntity
8
0
100
AcDbCircle
10
-15.371557950973649
20
-12.588359147310396
30
0
40
2.799999952316
210
0
220
0
230
1
0
CIRCLE
5
139
100
AcDbEntity
8
0
100
AcDbCircle
10
-14.371572180238648
20
-8.9323588765753943
30
0
40
0.3999992
210
0
220
0
230
1
0
CIRCLE
5
140
100
AcDbEntity
8
0
100
AcDbCircle
10
-16.371570720238648
20
-8.9323588765753943
30
0
40
0.3999992
210
0
220
0
230
1
0
CIRCLE
5
141
100
AcDbEntity
8
0
100
AcDbCircle
10
-18.371571800238648
20
-8.9323588765753943
30
0
40
0.34999930000000007
210
0
220
0
230
1
0
LINE
5
142
100
AcDbEntity
8
0
100
AcDbLine
10
-7.1947794997736025
20
-29.472256349010344
30
-1.3877787807814457e-16
11
-5.8034140136736401
21
-30.863621835110383
31
-1.3877787807814457e-16
0
ARC
5
143
100
AcDbEntity
8
0
100
AcDbCircle
10
-7.371556195073623
20
-28.588372872510384
30
1.3877787807814457e-16
40
2.7633001543260312
210
5.7000616511267973e-17
220
-8.270333846197517e-17
230
1
100
AcDbArc
50
304.57530450349174
51
325.42469549533064
0
LINE
5
144
100
AcDbEntity
8
0
100
AcDbLine
10
-5.0963072325561214
20
-30.15651505392249
30
1.3877787807814454e-16
11
-6.4876727185737249
21
-28.765149567810408
31
0
0
ARC
5
145
100
AcDbEntity
8
0
100
AcDbCircle
10
-6.8412261091736326
20
-29.118702958410374
30
-1.3877787807814457e-16
40
0.50000000000942268
210
-1.9626155733175724e-16
220
-1.9626155733178929e-16
230
1
100
AcDbArc
50
45.000000000004739
51
225
0
LWPOLYLINE
5
146
100
AcDbEntity
8
0
100
AcDbPolyline
90
4
70
1
43
0.0
10
-23.548332890373661
20
-29.472256349010376
10
-24.939698376473608
20
-30.863621835110386
42
-0.091224427300898664
10
-25.646805157673565
20
-30.156515053910415
10
-24.255439671573452
20
-28.765149567810443
42
-0.99999999999999989
0
LINE
5
147
100
AcDbEntity
8
0
100
AcDbLine
10
-24.939698376473629
20
-30.863621835110422
30
0
11
-23.548332890373661
21
-29.472256349010376
31
0
0
LWPOLYLINE
5
148
100
AcDbEntity
8
0
100
AcDbPolyline
90
4
70
1
43
0.0
10
-24.939698376473551
20
-2.3131239100104075
10
-23.54833289037358
20
-3.704489396010441
42
-0.99999999999999989
10
-24.255439671573534
20
-4.4115961772103738
10
-25.646805157605765
20
-3.0202306911571464
42
-0.091224427295728314
0
LWPOLYLINE
5
149
100
AcDbEntity
8
0
100
AcDbPolyline
90
4
70
1
43
0.0
10
-5.0963072325736665
20
-3.0202306911103669
10
-6.4876727185736645
20
-4.4115961772103738
42
-0.99999999999999989
10
-7.1947794997736008
20
-3.70448939601037
10
-5.8034140136736614
20
-2.3131239100103835
42
-0.091224427290549123
0
LWPOLYLINE
5
150
100
AcDbEntity
8
0
100
AcDbPolyline
90
4
70
1
43
0.0
10
-6.8765859145442469
20
-29.790453416014859
10
-6.1844981815939626
20
-30.482541254264568
42
0.1132719411240083
10
-5.4773913466017028
20
-29.775434526956825
10
-6.1694790795587275
20
-29.083346688613815
42
0.99999999999999989
0
ARC
5
151
100
AcDbEntity
8
0
100
AcDbCircle
10
-24.220088771847958
20
-29.436898706029631
30
-1.3877787807814457e-16
40
0.49999999999999734
210
-2.1789411637865826e-32
220
-2.1789408322660508e-32
230
1
100
AcDbArc
50
-45.000004358706128
51
134.99999478752045
0
LINE
5
152
100
AcDbEntity
8
0
100
AcDbLine
10
-23.866535408150828
20
-29.790452123519042
30
-1.3877787807814457e-16
11
-24.558623246393836
21
-30.482539856476031
31
0
0
ARC
5
153
100
AcDbEntity
8
0
100
AcDbCircle
10
-23.371560569896928
20
-28.588370633180009
30
-6.5788499680093341e-45
40
2.235395903331467
210
1.1767667747973655e-32
220
7.1717048662433568e-33
230
1
100
AcDbArc
50
212.07507730607222
51
237.92491397868969
0
LINE
5
154
100
AcDbEntity
8
0
100
AcDbLine
10
-25.265729973797733
20
-29.775433021581385
30
3.0803217310908012e-32
11
-24.573642130276735
21
-29.083345283271864
31
-1.3877787807814457e-16
0
LWPOLYLINE
5
155
100
AcDbEntity
8
0
100
AcDbPolyline
90
4
70
1
43
0.0
10
-23.866533399487146
20
-3.3862890675324984
42
-0.99999999999999989
10
-24.573640234465923
20
-4.0933957949268054
10
-25.265727967464141
20
-3.4013079566580728
42
-0.11327194113361053
10
-24.55862113245648
20
-2.6942012292349329
0
LWPOLYLINE
5
156
100
AcDbEntity
8
0
100
AcDbPolyline
90
4
70
1
43
0.0
10
-6.1694771784728006
20
-4.0933971950071548
10
-5.4773893402230911
20
-3.4013094620569007
42
0.11327194113356294
10
-6.1844960676308416
20
-2.6942026270645996
10
-6.8765839058738409
20
-3.3862903600216128
42
0.99999999999999989
0
SPLINE
5
157
100
AcDbEntity
8
0
100
AcDbSpline
70
4
71
2
72
6
73
3
74
0
42
0.000000001
43
0.0000000001
44
0.0000000001
40
-0.50948418397027795
40
-0.50948418397027795
40
-0.50948418397027795
40
-0.099423254111558154
40
-0.099423254111558154
40
-0.099423254111558154
41
0.99999999987110877
41
0.99999999966032693
41
0.99999999987233745
10
-5.4482954705635755
20
-16.038523568541514
30
1.3877787807814457e-16
10
-5.439040197026479
20
-16.074135081586256
30
0
10
-5.4297849240540152
20
-16.110089336984039
30
2.7755575615628914e-16
0
ARC
5
158
100
AcDbEntity
8
0
100
AcDbCircle
10
-7.3715612417175258
20
-12.588373739360179
30
0
40
4.0215638771970053
210
-5.5448419257925714e-34
220
-1.3769673278454201e-32
230
1
100
AcDbArc
50
61.128979170759465
51
298.87112358855529
0
SPLINE
5
159
100
AcDbEntity
8
0
100
AcDbSpline
70
4
71
2
72
6
73
3
74
0
42
0.000000001
43
0.0000000001
44
0.0000000001
40
0.099423251024394588
40
0.099423251024394588
40
0.099423251024394588
40
0.50948418084318547
40
0.50948418084318547
40
0.50948418084318547
41
1
41
1
41
1
10
-5.4297912402438975
20
-9.0666546591721797
30
2.7755575615628914e-16
10
-5.4390464816205686
20
-9.102608914048318
30
0
10
-5.4483017230062991
20
-9.1382204247985044
30
0
0
SPLINE
5
160
100
AcDbEntity
8
0
100
AcDbSpline
70
4
71
2
72
6
73
3
74
0
42
0.000000001
43
0.0000000001
44
0.0000000001
40
0.099423249604315603
40
0.099423249604315603
40
0.099423249604315603
40
0.50948417941023783
40
0.50948417941023783
40
0.50948417941023783
41
1
41
1
41
1
10
-25.31332377964743
20
-16.110087824368833
30
2.7755575615628914e-16
10
-25.304068521977712
20
-16.074133569079301
30
0
10
-25.294813264393365
20
-16.038522058742473
30
0
0
SPLINE
5
161
100
AcDbEntity
8
0
100
AcDbSpline
70
4
71
2
72
6
73
3
74
0
42
0.000000001
43
0.0000000001
44
0.0000000001
40
-0.50948417874187191
40
-0.50948417874187191
40
-0.50948417874187191
40
-0.099423248843617626
40
-0.099423248843617626
40
-0.099423248843617626
41
1.0000000004189729
41
1.0000000011041381
41
1.0000000004149785
10
-25.294799523696074
20
-9.1382189150009907
30
0
10
-25.304054703000975
20
-9.1026074034477844
30
0
10
-25.313309882525683
20
-9.0666531465585365
30
2.7755575615628914e-16
0
ARC
5
162
100
AcDbEntity
8
0
100
AcDbCircle
10
-23.371552972717549
20
-12.588374316680806
30
0
40
4.0215593862179162
210
3.3324161719273324e-17
220
6.0438724302740536e-17
230
1
100
AcDbArc
50
-118.87106921163112
51
118.87084311557101
0
ENDSEC
0
SECTION
2
OBJECTS
0
DICTIONARY
5
C
100
AcDbDictionary
3
ACAD_GROUP
350
D
3
ACAD_MLINESTYLE
350
17
0
DICTIONARY
5
D
100
AcDbDictionary
0
DICTIONARY
5
1A
330
C
100
AcDbDictionary
0
DICTIONARY
5
17
100
AcDbDictionary
0
ENDSEC
0
EOF
