0
SECTION
2
HEADER
9
$INSUNITS
70
4
9
$ACADVER
1
AC1014
9
$HANDSEED
5
FFFF
0
ENDSEC
0
SECTION
2
TABLES
0
TABLE
2
VPORT
5
8
100
AcDbSymbolTable
0
ENDTAB
0
TABLE
2
LTYPE
5
5
100
AcDbSymbolTable
0
LTYPE
5
14
100
AcDbSymbolTableRecord
100
AcDbLinetypeTableRecord
2
BYBLOCK
70
0
0
LTYPE
5
15
100
AcDbSymbolTableRecord
100
AcDbLinetypeTableRecord
2
BYLAYER
70
0
0
ENDTAB
0
TABLE
2
LAYER
5
2
100
AcDbSymbolTable
70
2
0
LAYER
5
50
100
AcDbSymbolTableRecord
100
AcDbLayerTableRecord
2
0
70
0
6
CONTINUOUS
0
ENDTAB
0
TABLE
2
STYLE
5
3
100
AcDbSymbolTable
70
1
0
STYLE
5
11
100
AcDbSymbolTableRecord
100
AcDbTextStyleTableRecord
2
STANDARD
70
0
0
ENDTAB
0
TABLE
2
VIEW
5
6
100
AcDbSymbolTable
70
0
0
ENDTAB
0
TABLE
2
UCS
5
7
100
AcDbSymbolTable
70
0
0
ENDTAB
0
TABLE
2
APPID
5
9
100
AcDbSymbolTable
70
2
0
APPID
5
12
100
AcDbSymbolTableRecord
100
AcDbRegAppTableRecord
2
ACAD
70
0
0
ENDTAB
0
TABLE
2
DIMSTYLE
5
A
100
AcDbSymbolTable
70
1
0
ENDTAB
0
TABLE
2
BLOCK_RECORD
5
1
100
AcDbSymbolTable
70
1
0
BLOCK_RECORD
5
1F
100
AcDbSymbolTableRecord
100
AcDbBlockTableRecord
2
*MODEL_SPACE
0
BLOCK_RECORD
5
1B
100
AcDbSymbolTableRecord
100
AcDbBlockTableRecord
2
*PAPER_SPACE
0
ENDTAB
0
ENDSEC
0
SECTION
2
BLOCKS
0
BLOCK
5
20
100
AcDbEntity
100
AcDbBlockBegin
2
*MODEL_SPACE
0
ENDBLK
5
21
100
AcDbEntity
100
AcDbBlockEnd
0
BLOCK
5
1C
100
AcDbEntity
100
AcDbBlockBegin
2
*PAPER_SPACE
0
ENDBLK
5
1D
100
AcDbEntity
100
AcDbBlockEnd
0
ENDSEC
0
SECTION
2
ENTITIES
0
LWPOLYLINE
5
100
100
AcDbEntity
8
0
100
AcDbPolyline
90
14
70
1
43
0.0
10
23.000000000000004
20
25
10
25
20
23.000000000000004
10
25
20
-23.000000000000004
10
23.000000000000007
20
-25
10
-11.449000358581999
20
-25
10
-12.000000000000002
20
-24.448999404906999
10
-12.000000000000002
20
-22.448999404907003
10
-16
20
-22.448999404907003
10
-16
20
-24.448999404906999
10
-16.551000595093001
20
-25
10
-23.000000000000004
20
-25
10
-25
20
-23.000000000000004
10
-25
20
23.000000000000004
10
-23.000000000000004
20
25
0
CIRCLE
5
101
100
AcDbEntity
8
0
100
AcDbCircle
10
22.000006800000001
20
22.05082204
30
3.5581970703191246e-09
40
1.5499994400000001
210
0
220
0
230
1
0
CIRCLE
5
102
100
AcDbEntity
8
0
100
AcDbCircle
10
-18.000007180000001
20
22.05082204
30
3.5581970703191246e-09
40
1.00000054
210
0
220
0
230
1
0
CIRCLE
5
103
100
AcDbEntity
8
0
100
AcDbCircle
10
18.000007180000001
20
22.05082204
30
3.5581970703191246e-09
40
1.00000054
210
0
220
0
230
1
0
CIRCLE
5
104
100
AcDbEntity
8
0
100
AcDbCircle
10
22.000006800000001
20
-21.949206799999999
30
3.5581970703191246e-09
40
1.5499994400000001
210
0
220
0
230
1
0
CIRCLE
5
105
100
AcDbEntity
8
0
100
AcDbCircle
10
-18.000022420000001
20
-21.949206799999999
30
3.5581970703191246e-09
40
1.00000054
210
0
220
0
230
1
0
CIRCLE
5
106
100
AcDbEntity
8
0
100
AcDbCircle
10
18.000007180000001
20
-21.949206799999999
30
3.5581970703191246e-09
40
1.00000054
210
0
220
0
230
1
0
CIRCLE
5
107
100
AcDbEntity
8
0
100
AcDbCircle
10
-19.049885700000001
20
14.020929540000001
30
3.5581970703191246e-09
40
0.49999900000000008
210
0
220
0
230
1
0
CIRCLE
5
108
100
AcDbEntity
8
0
100
AcDbCircle
10
-22.000006800000001
20
22.05082204
30
3.5581970703191246e-09
40
1.5499994400000001
210
0
220
0
230
1
0
CIRCLE
5
109
100
AcDbEntity
8
0
100
AcDbCircle
10
-19.049873000000002
20
16.56094732
30
3.5581970703191246e-09
40
0.54999889999999996
210
0
220
0
230
1
0
CIRCLE
5
110
100
AcDbEntity
8
0
100
AcDbCircle
10
-19.049870460000001
20
-13.919055220000001
30
3.5581970703191246e-09
40
0.49999900000000008
210
0
220
0
230
1
0
CIRCLE
5
111
100
AcDbEntity
8
0
100
AcDbCircle
10
-19.049870460000001
20
-16.45905522
30
3.5581970703191246e-09
40
0.54999889999999996
210
0
220
0
230
1
0
CIRCLE
5
112
100
AcDbEntity
8
0
100
AcDbCircle
10
-22.000022040000001
20
-21.949206799999999
30
3.5581970703191246e-09
40
1.5499994400000001
210
0
220
0
230
1
0
LWPOLYLINE
5
113
100
AcDbEntity
8
0
100
AcDbPolyline
90
14
70
1
43
0.0
10
23.000000000000004
20
25
10
25
20
23.000000000000004
10
25
20
-23.000000000000004
10
23.000000000000007
20
-25
10
-11.449000358581788
20
-24.999999999999787
10
-12.000000000000002
20
-24.448999404906999
10
-12.000000000000002
20
-22.448999404907003
10
-16
20
-22.448999404907003
10
-16
20
-24.448999404906999
10
-16.551000595093001
20
-25
10
-23.000000000000004
20
-25
10
-25
20
-23.000000000000004
10
-25
20
23.000000000000004
10
-23.000000000000004
20
25
0
CIRCLE
5
114
100
AcDbEntity
8
0
100
AcDbCircle
10
22.000006800000001
20
22.05082204
30
0
40
1.5499994400000001
210
0
220
0
230
1
0
CIRCLE
5
115
100
AcDbEntity
8
0
100
AcDbCircle
10
-18.000007180000001
20
22.05082204
30
0
40
1.00000054
210
0
220
0
230
1
0
CIRCLE
5
116
100
AcDbEntity
8
0
100
AcDbCircle
10
18.000007180000001
20
22.05082204
30
0
40
1.00000054
210
0
220
0
230
1
0
CIRCLE
5
117
100
AcDbEntity
8
0
100
AcDbCircle
10
22.000006800000001
20
-21.949206799999999
30
0
40
1.5499994400000001
210
0
220
0
230
1
0
CIRCLE
5
118
100
AcDbEntity
8
0
100
AcDbCircle
10
-18.000022420000001
20
-21.949206799999999
30
0
40
1.00000054
210
0
220
0
230
1
0
CIRCLE
5
119
100
AcDbEntity
8
0
100
AcDbCircle
10
18.000007180000001
20
-21.949206799999999
30
0
40
1.00000054
210
0
220
0
230
1
0
CIRCLE
5
120
100
AcDbEntity
8
0
100
AcDbCircle
10
-19.049885700000001
20
14.020929540000001
30
0
40
0.49999900000000008
210
0
220
0
230
1
0
CIRCLE
5
121
100
AcDbEntity
8
0
100
AcDbCircle
10
-22.000006800000001
20
22.05082204
30
0
40
1.5499994400000001
210
0
220
0
230
1
0
CIRCLE
5
122
100
AcDbEntity
8
0
100
AcDbCircle
10
-19.049873000000002
20
16.56094732
30
0
40
0.54999889999999996
210
0
220
0
230
1
0
CIRCLE
5
123
100
AcDbEntity
8
0
100
AcDbCircle
10
-19.049870460000001
20
-13.919055220000001
30
0
40
0.49999900000000008
210
0
220
0
230
1
0
CIRCLE
5
124
100
AcDbEntity
8
0
100
AcDbCircle
10
-19.049870460000001
20
-16.45905522
30
0
40
0.54999889999999996
210
0
220
0
230
1
0
CIRCLE
5
125
100
AcDbEntity
8
0
100
AcDbCircle
10
-22.000022040000001
20
-21.949206799999999
30
0
40
1.5499994400000001
210
0
220
0
230
1
0
LINE
5
126
100
AcDbEntity
8
0
100
AcDbLine
10
-15.449870460000001
20
-16.879055220000001
30
0
11
-18.049870460000005
21
-16.879055220000001
31
0
0
LINE
5
127
100
AcDbEntity
8
0
100
AcDbLine
10
-18.049870460000005
20
-16.879055220000001
30
0
11
-18.049870460000005
21
-18.579055220000001
31
0
0
LINE
5
128
100
AcDbEntity
8
0
100
AcDbLine
10
-18.049870460000005
20
-18.579055220000001
30
0
11
-15.449870460000001
21
-18.579055220000001
31
0
0
LINE
5
129
100
AcDbEntity
8
0
100
AcDbLine
10
-15.449870460000001
20
-18.579055220000001
30
0
11
-15.449870460000001
21
-16.879055220000001
31
0
0
LINE
5
130
100
AcDbEntity
8
0
100
AcDbLine
10
-15.449870460000001
20
-16.879055220000001
30
0
11
-18.049870460000005
21
-18.579055220000001
31
0
0
LINE
5
131
100
AcDbEntity
8
0
100
AcDbLine
10
-18.049870460000005
20
-16.879055220000001
30
0
11
-15.449870460000001
21
-18.579055220000001
31
0
0
LWPOLYLINE
5
132
100
AcDbEntity
8
0
100
AcDbPolyline
90
4
70
1
43
0.0
10
-20.049870460000001
20
-18.579055220000001
10
-20.049870460000001
20
-16.879055220000001
10
-22.649870460000002
20
-16.879055220000001
10
-22.649870460000002
20
-18.579055220000001
0
LWPOLYLINE
5
133
100
AcDbEntity
8
0
100
AcDbPolyline
90
4
70
1
43
0.0
10
-15.449870460000001
20
-16.039055220000002
10
-18.049870460000005
20
-16.039055220000002
10
-18.049870460000005
20
-14.339055220000001
10
-15.449870460000001
20
-14.339055220000001
0
LWPOLYLINE
5
134
100
AcDbEntity
8
0
100
AcDbPolyline
90
4
70
1
43
0.0
10
-20.049870460000001
20
-14.339055220000001
10
-22.649870460000002
20
-14.339055220000001
10
-22.649870460000002
20
-16.039055220000002
10
-20.049870460000001
20
-16.039055220000002
0
LWPOLYLINE
5
135
100
AcDbEntity
8
0
100
AcDbPolyline
90
4
70
1
43
0.0
10
-15.449870460000001
20
-13.499055219999999
10
-18.049870460000005
20
-13.499055219999999
10
-18.049870460000005
20
-11.79905522
10
-15.449870460000001
20
-11.79905522
0
LWPOLYLINE
5
136
100
AcDbEntity
8
0
100
AcDbPolyline
90
4
70
1
43
0.0
10
-20.049870460000001
20
-11.79905522
10
-22.649870460000002
20
-11.79905522
10
-22.649870460000002
20
-13.499055219999999
10
-20.049870460000001
20
-13.499055219999999
0
LWPOLYLINE
5
137
100
AcDbEntity
8
0
100
AcDbPolyline
90
4
70
1
43
0.0
10
-15.449870460000001
20
-10.959055219999998
10
-18.049870460000005
20
-10.959055219999998
10
-18.049870460000005
20
-9.2590552199999987
10
-15.449870460000001
20
-9.2590552199999987
0
LWPOLYLINE
5
138
100
AcDbEntity
8
0
100
AcDbPolyline
90
4
70
1
43
0.0
10
-20.049870460000001
20
-9.2590552199999987
10
-22.649870460000002
20
-9.2590552199999987
10
-22.649870460000002
20
-10.959055219999998
10
-20.049870460000001
20
-10.959055219999998
0
LWPOLYLINE
5
139
100
AcDbEntity
8
0
100
AcDbPolyline
90
4
70
1
43
0.0
10
-15.449870460000001
20
-8.4190552199999971
10
-18.049870460000005
20
-8.4190552199999971
10
-18.049870460000005
20
-6.7190552199999987
10
-15.449870460000001
20
-6.7190552199999987
0
LWPOLYLINE
5
140
100
AcDbEntity
8
0
100
AcDbPolyline
90
4
70
1
43
0.0
10
-20.049870460000001
20
-6.7190552199999987
10
-22.649870460000002
20
-6.7190552199999987
10
-22.649870460000002
20
-8.4190552199999971
10
-20.049870460000001
20
-8.4190552199999971
0
LWPOLYLINE
5
141
100
AcDbEntity
8
0
100
AcDbPolyline
90
4
70
1
43
0.0
10
-15.449870460000001
20
-5.8790552199999979
10
-18.049870460000005
20
-5.8790552199999979
10
-18.049870460000005
20
-4.1790552199999986
10
-15.449870460000001
20
-4.1790552199999986
0
LWPOLYLINE
5
142
100
AcDbEntity
8
0
100
AcDbPolyline
90
4
70
1
43
0.0
10
-20.049870460000001
20
-4.1790552199999986
10
-22.649870460000002
20
-4.1790552199999986
10
-22.649870460000002
20
-5.8790552199999979
10
-20.049870460000001
20
-5.8790552199999979
0
LWPOLYLINE
5
143
100
AcDbEntity
8
0
100
AcDbPolyline
90
4
70
1
43
0.0
10
-15.449870460000001
20
-3.3390552199999957
10
-18.049870460000005
20
-3.3390552199999957
10
-18.049870460000005
20
-1.6390552199999964
10
-15.449870460000001
20
-1.6390552199999964
0
LWPOLYLINE
5
144
100
AcDbEntity
8
0
100
AcDbPolyline
90
4
70
1
43
0.0
10
-20.049870460000001
20
-1.6390552199999964
10
-22.649870460000002
20
-1.6390552199999964
10
-22.649870460000002
20
-3.3390552199999957
10
-20.049870460000001
20
-3.3390552199999957
0
LWPOLYLINE
5
145
100
AcDbEntity
8
0
100
AcDbPolyline
90
4
70
1
43
0.0
10
-15.449870460000001
20
-0.79905521999999563
10
-18.049870460000005
20
-0.79905521999999563
10
-18.049870460000005
20
0.90094478000000366
10
-15.449870460000001
20
0.90094478000000366
0
LWPOLYLINE
5
146
100
AcDbEntity
8
0
100
AcDbPolyline
90
4
70
1
43
0.0
10
-20.049870460000001
20
0.90094478000000366
10
-22.649870460000002
20
0.90094478000000366
10
-22.649870460000002
20
-0.79905521999999563
10
-20.049870460000001
20
-0.79905521999999563
0
LWPOLYLINE
5
147
100
AcDbEntity
8
0
100
AcDbPolyline
90
4
70
1
43
0.0
10
-15.449870460000001
20
1.7409447800000044
10
-18.049870460000005
20
1.7409447800000044
10
-18.049870460000005
20
3.4409447800000037
10
-15.449870460000001
20
3.4409447800000037
0
LWPOLYLINE
5
148
100
AcDbEntity
8
0
100
AcDbPolyline
90
4
70
1
43
0.0
10
-20.049870460000001
20
3.4409447800000037
10
-22.649870460000002
20
3.4409447800000037
10
-22.649870460000002
20
1.7409447800000044
10
-20.049870460000001
20
1.7409447800000044
0
LWPOLYLINE
5
149
100
AcDbEntity
8
0
100
AcDbPolyline
90
4
70
1
43
0.0
10
-15.449870460000001
20
4.280944780000004
10
-18.049870460000005
20
4.280944780000004
10
-18.049870460000005
20
5.9809447800000033
10
-15.449870460000001
20
5.9809447800000033
0
LWPOLYLINE
5
150
100
AcDbEntity
8
0
100
AcDbPolyline
90
4
70
1
43
0.0
10
-20.049870460000001
20
5.9809447800000033
10
-22.649870460000002
20
5.9809447800000033
10
-22.649870460000002
20
4.280944780000004
10
-20.049870460000001
20
4.280944780000004
0
LWPOLYLINE
5
151
100
AcDbEntity
8
0
100
AcDbPolyline
90
4
70
1
43
0.0
10
-15.449870460000001
20
6.8209447800000049
10
-18.049870460000005
20
6.8209447800000049
10
-18.049870460000005
20
8.5209447800000042
10
-15.449870460000001
20
8.5209447800000042
0
LWPOLYLINE
5
152
100
AcDbEntity
8
0
100
AcDbPolyline
90
4
70
1
43
0.0
10
-20.049870460000001
20
8.5209447800000042
10
-22.649870460000002
20
8.5209447800000042
10
-22.649870460000002
20
6.8209447800000049
10
-20.049870460000001
20
6.8209447800000049
0
LWPOLYLINE
5
153
100
AcDbEntity
8
0
100
AcDbPolyline
90
4
70
1
43
0.0
10
-15.449870460000001
20
9.3609447800000041
10
-18.049870460000005
20
9.3609447800000041
10
-18.049870460000005
20
11.060944780000003
10
-15.449870460000001
20
11.060944780000003
0
LWPOLYLINE
5
154
100
AcDbEntity
8
0
100
AcDbPolyline
90
4
70
1
43
0.0
10
-20.049870460000001
20
11.060944780000003
10
-22.649870460000002
20
11.060944780000003
10
-22.649870460000002
20
9.3609447800000041
10
-20.049870460000001
20
9.3609447800000041
0
LWPOLYLINE
5
155
100
AcDbEntity
8
0
100
AcDbPolyline
90
4
70
1
43
0.0
10
-15.449870460000001
20
11.900944780000009
10
-18.049870460000005
20
11.900944780000009
10
-18.049870460000005
20
13.600944780000008
10
-15.449870460000001
20
13.600944780000008
0
LWPOLYLINE
5
156
100
AcDbEntity
8
0
100
AcDbPolyline
90
4
70
1
43
0.0
10
-20.049870460000001
20
13.600944780000008
10
-22.649870460000002
20
13.600944780000008
10
-22.649870460000002
20
11.900944780000009
10
-20.049870460000001
20
11.900944780000009
0
LWPOLYLINE
5
157
100
AcDbEntity
8
0
100
AcDbPolyline
90
4
70
1
43
0.0
10
-15.449870460000001
20
14.440944780000009
10
-18.049870460000005
20
14.440944780000009
10
-18.049870460000005
20
16.140944780000009
10
-15.449870460000001
20
16.140944780000009
0
LWPOLYLINE
5
158
100
AcDbEntity
8
0
100
AcDbPolyline
90
4
70
1
43
0.0
10
-20.049870460000001
20
16.140944780000009
10
-22.649870460000002
20
16.140944780000009
10
-22.649870460000002
20
14.440944780000009
10
-20.049870460000001
20
14.440944780000009
0
LWPOLYLINE
5
159
100
AcDbEntity
8
0
100
AcDbPolyline
90
4
70
1
43
0.0
10
-15.449870460000001
20
16.980944780000009
10
-18.049870460000005
20
16.980944780000009
10
-18.049870460000005
20
18.680944780000008
10
-15.449870460000001
20
18.680944780000008
0
LWPOLYLINE
5
160
100
AcDbEntity
8
0
100
AcDbPolyline
90
4
70
1
43
0.0
10
-20.049870460000001
20
18.680944780000008
10
-22.649870460000002
20
18.680944780000008
10
-22.649870460000002
20
16.980944780000009
10
-20.049870460000001
20
16.980944780000009
0
ENDSEC
0
SECTION
2
OBJECTS
0
DICTIONARY
5
C
100
AcDbDictionary
3
ACAD_GROUP
350
D
3
ACAD_MLINESTYLE
350
17
0
DICTIONARY
5
D
100
AcDbDictionary
0
DICTIONARY
5
1A
330
C
100
AcDbDictionary
0
DICTIONARY
5
17
100
AcDbDictionary
0
ENDSEC
0
EOF
