0
SECTION
2
HEADER
9
$INSUNITS
70
4
9
$ACADVER
1
AC1014
9
$HANDSEED
5
FFFF
0
ENDSEC
0
SECTION
2
TABLES
0
TABLE
2
VPORT
5
8
100
AcDbSymbolTable
0
ENDTAB
0
TABLE
2
LTYPE
5
5
100
AcDbSymbolTable
0
LTYPE
5
14
100
AcDbSymbolTableRecord
100
AcDbLinetypeTableRecord
2
BYBLOCK
70
0
0
LTYPE
5
15
100
AcDbSymbolTableRecord
100
AcDbLinetypeTableRecord
2
BYLAYER
70
0
0
ENDTAB
0
TABLE
2
LAYER
5
2
100
AcDbSymbolTable
70
2
0
LAYER
5
50
100
AcDbSymbolTableRecord
100
AcDbLayerTableRecord
2
0
70
0
6
CONTINUOUS
0
ENDTAB
0
TABLE
2
STYLE
5
3
100
AcDbSymbolTable
70
1
0
STYLE
5
11
100
AcDbSymbolTableRecord
100
AcDbTextStyleTableRecord
2
STANDARD
70
0
0
ENDTAB
0
TABLE
2
VIEW
5
6
100
AcDbSymbolTable
70
0
0
ENDTAB
0
TABLE
2
UCS
5
7
100
AcDbSymbolTable
70
0
0
ENDTAB
0
TABLE
2
APPID
5
9
100
AcDbSymbolTable
70
2
0
APPID
5
12
100
AcDbSymbolTableRecord
100
AcDbRegAppTableRecord
2
ACAD
70
0
0
ENDTAB
0
TABLE
2
DIMSTYLE
5
A
100
AcDbSymbolTable
70
1
0
ENDTAB
0
TABLE
2
BLOCK_RECORD
5
1
100
AcDbSymbolTable
70
1
0
BLOCK_RECORD
5
1F
100
AcDbSymbolTableRecord
100
AcDbBlockTableRecord
2
*MODEL_SPACE
0
BLOCK_RECORD
5
1B
100
AcDbSymbolTableRecord
100
AcDbBlockTableRecord
2
*PAPER_SPACE
0
ENDTAB
0
ENDSEC
0
SECTION
2
BLOCKS
0
BLOCK
5
20
100
AcDbEntity
100
AcDbBlockBegin
2
*MODEL_SPACE
0
ENDBLK
5
21
100
AcDbEntity
100
AcDbBlockEnd
0
BLOCK
5
1C
100
AcDbEntity
100
AcDbBlockBegin
2
*PAPER_SPACE
0
ENDBLK
5
1D
100
AcDbEntity
100
AcDbBlockEnd
0
ENDSEC
0
SECTION
2
ENTITIES
0
LINE
5
100
100
AcDbEntity
8
0
100
AcDbLine
10
10.300000190730001
20
7.6999998092649999
30
-8.3627316183054745e-09
11
7.6999998092649999
21
10.300000190730001
31
-8.3627316183054745e-09
0
LINE
5
101
100
AcDbEntity
8
0
100
AcDbLine
10
7.6999998092649999
20
10.300000190730001
30
-8.3627316183054745e-09
11
-7.6999998092649999
21
10.300000190730001
31
-8.3627316183054745e-09
0
LINE
5
102
100
AcDbEntity
8
0
100
AcDbLine
10
-7.6999998092649999
20
10.300000190730001
30
-8.3627316183054745e-09
11
-10.300000190735002
21
7.6999998092649999
31
-8.3627316183054745e-09
0
LINE
5
103
100
AcDbEntity
8
0
100
AcDbLine
10
-10.300000190735002
20
7.6999998092649999
30
-8.3627316183054745e-09
11
-10.300000190735002
21
3.5499999523160004
31
-8.3627316183054745e-09
0
LINE
5
104
100
AcDbEntity
8
0
100
AcDbLine
10
-10.300000190735002
20
3.5499999523160004
30
-8.3627316183054745e-09
11
-8
21
3.5499999523160004
31
-8.3627316183054745e-09
0
ARC
5
105
100
AcDbEntity
8
0
100
AcDbCircle
10
-7.9999997615809999
20
2.22044604925e-16
30
-8.3627316183054745e-09
40
3.549999952316
210
0
220
0
230
1
100
AcDbArc
50
-90.000003848000759
51
90.000003848000759
0
LINE
5
106
100
AcDbEntity
8
0
100
AcDbLine
10
-7.9999999999999982
20
-3.549999952315992
30
-8.3627316183054745e-09
11
-10.300000190735002
21
-3.5499999523160004
31
-8.3627316183054745e-09
0
LINE
5
107
100
AcDbEntity
8
0
100
AcDbLine
10
-10.300000190735002
20
-3.5499999523160004
30
-8.3627316183054745e-09
11
-10.300000190735002
21
-7.6999998092649999
31
-8.3627316183054745e-09
0
LINE
5
108
100
AcDbEntity
8
0
100
AcDbLine
10
-10.300000190735002
20
-7.6999998092649999
30
-8.3627316183054745e-09
11
-7.6999998092649999
21
-10.300000190735002
31
-8.3627316183054745e-09
0
LINE
5
109
100
AcDbEntity
8
0
100
AcDbLine
10
-7.6999998092649999
20
-10.300000190735002
30
-8.3627316183054745e-09
11
7.6999998092649999
21
-10.300000190735002
31
-8.3627316183054745e-09
0
LINE
5
110
100
AcDbEntity
8
0
100
AcDbLine
10
7.6999998092649999
20
-10.300000190735002
30
-8.3627316183054745e-09
11
10.300000190730001
21
-7.6999998092649999
31
-8.3627316183054745e-09
0
LINE
5
111
100
AcDbEntity
8
0
100
AcDbLine
10
10.300000190730001
20
-7.6999998092649999
30
-8.3627316183054745e-09
11
10.300000190730001
21
-3.5499999523160004
31
-8.3627316183054745e-09
0
LINE
5
112
100
AcDbEntity
8
0
100
AcDbLine
10
10.300000190730001
20
-3.5499999523160004
30
-8.3627316183054745e-09
11
8
21
-3.5499999523160004
31
-8.3627316183054745e-09
0
ARC
5
113
100
AcDbEntity
8
0
100
AcDbCircle
10
7.9999997615809999
20
-2.22044604925e-16
30
-8.3627316183054745e-09
40
3.549999952316
210
0
220
-0
230
1
100
AcDbArc
50
89.999996151999284
51
270.00000384800074
0
LINE
5
114
100
AcDbEntity
8
0
100
AcDbLine
10
7.9999999999999982
20
3.549999952315992
30
-8.3627316183054745e-09
11
10.300000190730001
21
3.5499999523160004
31
-8.3627316183054745e-09
0
LINE
5
115
100
AcDbEntity
8
0
100
AcDbLine
10
10.300000190730001
20
3.5499999523160004
30
-8.3627316183054745e-09
11
10.300000190730001
21
7.6999998092649999
31
-8.3627316183054745e-09
0
CIRCLE
5
116
100
AcDbEntity
8
0
100
AcDbCircle
10
2.9999813000000004
20
3.6559972600000004
30
-8.3627316183054745e-09
40
0.34999930000000007
210
0
220
0
230
1
0
CIRCLE
5
117
100
AcDbEntity
8
0
100
AcDbCircle
10
0
20
0
30
0
40
2.799999952316
210
0
220
0
230
1
0
CIRCLE
5
118
100
AcDbEntity
8
0
100
AcDbCircle
10
0.99998022000000009
20
3.6559972600000004
30
-8.3627316183054745e-09
40
0.3999992
210
0
220
0
230
1
0
CIRCLE
5
119
100
AcDbEntity
8
0
100
AcDbCircle
10
-1.0000183199999999
20
3.6559972600000004
30
-8.3627316183054745e-09
40
0.3999992
210
0
220
0
230
1
0
CIRCLE
5
120
100
AcDbEntity
8
0
100
AcDbCircle
10
-3.0000194000000002
20
3.6559972600000004
30
-8.3627316183054745e-09
40
0.34999930000000007
210
0
220
0
230
1
0
LINE
5
121
100
AcDbEntity
8
0
100
AcDbLine
10
10.300000190730001
20
7.6999998092649999
30
0
11
7.6999998092650017
21
10.300000190730001
31
0
0
LINE
5
122
100
AcDbEntity
8
0
100
AcDbLine
10
7.6999998092650017
20
10.300000190730001
30
0
11
-7.6999998092649999
21
10.300000190730001
31
0
0
LINE
5
123
100
AcDbEntity
8
0
100
AcDbLine
10
-7.6999998092649999
20
10.300000190730001
30
0
11
-10.300000190732501
21
7.6999998092625006
31
0
0
LINE
5
124
100
AcDbEntity
8
0
100
AcDbLine
10
-10.300000190732501
20
7.6999998092625006
30
0
11
-10.300000190735002
21
3.549999952316
31
0
0
LINE
5
125
100
AcDbEntity
8
0
100
AcDbLine
10
-10.300000190735002
20
3.549999952316
30
0
11
-8
21
3.5499999523160004
31
0
0
ARC
5
126
100
AcDbEntity
8
0
100
AcDbCircle
10
-7.9999997615809999
20
-2.7755575615628914e-16
30
0
40
3.549999952316
210
0
220
0
230
1
100
AcDbArc
50
-90.000003848000702
51
90.000003848000759
0
LINE
5
127
100
AcDbEntity
8
0
100
AcDbLine
10
-7.9999999999999973
20
-3.549999952315992
30
0
11
-10.300000190735002
21
-3.5499999523160004
31
0
0
LINE
5
128
100
AcDbEntity
8
0
100
AcDbLine
10
-10.300000190735002
20
-3.5499999523160004
30
0
11
-10.300000190735002
21
-7.6999998092650017
31
0
0
LINE
5
129
100
AcDbEntity
8
0
100
AcDbLine
10
-10.300000190735002
20
-7.6999998092650017
30
0
11
-7.6999998092650017
21
-10.300000190735002
31
0
0
LINE
5
130
100
AcDbEntity
8
0
100
AcDbLine
10
-7.6999998092650017
20
-10.300000190735002
30
0
11
7.6999998092649999
21
-10.300000190735002
31
0
0
LINE
5
131
100
AcDbEntity
8
0
100
AcDbLine
10
7.6999998092649999
20
-10.300000190735002
30
0
11
10.300000190732501
21
-7.699999809267501
31
0
0
LINE
5
132
100
AcDbEntity
8
0
100
AcDbLine
10
10.300000190732501
20
-7.699999809267501
30
0
11
10.300000190730001
21
-3.549999952316
31
0
0
LINE
5
133
100
AcDbEntity
8
0
100
AcDbLine
10
10.300000190730001
20
-3.549999952316
30
0
11
8
21
-3.5499999523160004
31
0
0
ARC
5
134
100
AcDbEntity
8
0
100
AcDbCircle
10
7.9999997615809999
20
2.7755575615628914e-16
30
0
40
3.549999952316
210
0
220
-0
230
1
100
AcDbArc
50
89.999996151999298
51
270.00000384800074
0
LINE
5
135
100
AcDbEntity
8
0
100
AcDbLine
10
7.9999999999999973
20
3.549999952315992
30
0
11
10.300000190730001
21
3.5499999523160004
31
0
0
LINE
5
136
100
AcDbEntity
8
0
100
AcDbLine
10
10.300000190730001
20
3.5499999523160004
30
0
11
10.300000190730001
21
7.6999998092649999
31
0
0
CIRCLE
5
137
100
AcDbEntity
8
0
100
AcDbCircle
10
2.9999813000000004
20
3.6559972600000004
30
0
40
0.34999930000000007
210
0
220
0
230
1
0
CIRCLE
5
138
100
AcDbEntity
8
0
100
AcDbCircle
10
0
20
0
30
0
40
2.799999952316
210
0
220
0
230
1
0
CIRCLE
5
139
100
AcDbEntity
8
0
100
AcDbCircle
10
0.99998022000000009
20
3.6559972600000004
30
0
40
0.3999992
210
0
220
0
230
1
0
CIRCLE
5
140
100
AcDbEntity
8
0
100
AcDbCircle
10
-1.0000183199999999
20
3.6559972600000004
30
0
40
0.3999992
210
0
220
0
230
1
0
CIRCLE
5
141
100
AcDbEntity
8
0
100
AcDbCircle
10
-3.0000194000000002
20
3.6559972600000004
30
0
40
0.34999930000000007
210
0
220
0
230
1
0
LWPOLYLINE
5
142
100
AcDbEntity
8
0
100
AcDbPolyline
90
4
70
1
43
0.0
10
-9.566157329860026
20
-10.27326411079639
42
-0.091317187937852332
10
-10.273264110796765
20
-9.5661573298596103
10
-8.9581264810004768
20
-8.2510197000001995
42
-0.99999999999999989
10
-8.2510196990000395
20
-8.9581264799997484
0
LWPOLYLINE
5
143
100
AcDbEntity
8
0
100
AcDbPolyline
90
4
70
1
43
0.0
10
10.273264110474729
20
-9.5661573303270444
42
-0.091317187961235835
10
9.5661573291817277
20
-10.273264111263703
10
8.2510196979995953
20
-8.9581264810001926
42
-0.99999999999999989
10
8.9581264800000326
20
-8.2510196989997553
0
LWPOLYLINE
5
144
100
AcDbEntity
8
0
100
AcDbPolyline
90
4
70
1
43
0.0
10
-10.273264110796767
20
9.5661573298598945
42
-0.091317187937855024
10
-9.566157329860026
20
10.273264110796674
10
-8.2510196990000395
20
8.9581264810004768
42
-0.99999999999999989
10
-8.9581264810004768
20
8.2510196990000395
0
LWPOLYLINE
5
145
100
AcDbEntity
8
0
100
AcDbPolyline
90
4
70
1
43
0.0
10
9.5661573291817277
20
10.273264111263988
42
-0.091317187961216129
10
10.273264110474596
20
9.5661573303275222
10
8.9581264790001569
20
8.2510197000001995
42
-0.99999999999999989
10
8.2510196989994711
20
8.9581264800003169
0
LWPOLYLINE
5
146
100
AcDbEntity
8
0
100
AcDbPolyline
90
4
70
1
43
0.0
10
9.4849242399993727
20
8.7778174590002322
10
9.992809956999622
20
9.2857031760001973
42
0.10661379451290101
10
9.2857031759996289
20
9.9928099570001905
10
8.777817457906723
20
9.4849242400932905
42
0.99999999999999989
0
LWPOLYLINE
5
147
100
AcDbEntity
8
0
100
AcDbPolyline
90
4
70
1
43
0.0
10
-8.7778174590005165
20
9.4849242400002254
10
-9.2857031770006415
20
9.9928099570001905
42
0.10661379448109963
10
-9.9928099580006347
20
9.2857031760001973
10
-9.4849242405934415
20
8.7778174594071761
42
0.99999999999999989
0
LINE
5
148
100
AcDbEntity
8
0
100
AcDbLine
10
-9.9928099580006347
20
-9.2857031759999131
30
0
11
-9.4849242410003853
21
-8.777817458999948
31
0
0
ARC
5
149
100
AcDbEntity
8
0
100
AcDbCircle
10
-9.1313708500001667
20
-9.1313708499998825
30
0
40
0.4999999999997996
210
0
220
0
230
1
100
AcDbArc
50
-44.999999919004608
51
135.00000000002305
0
LINE
5
150
100
AcDbEntity
8
0
100
AcDbLine
10
-8.7778174589072382
20
-9.4849242400932194
30
0
11
-9.2857031770006415
21
-9.9928099569999063
31
0
0
ARC
5
151
100
AcDbEntity
8
0
100
AcDbCircle
10
-8.0000000000000977
20
-7.9999999999998153
30
0
40
2.3715657666366412
210
0
220
0
230
1
100
AcDbArc
50
212.82893425536253
51
237.17106571122392
0
LINE
5
152
100
AcDbEntity
8
0
100
AcDbLine
10
9.2857031759996289
20
-9.9928099569999063
30
0
11
8.7778174579995039
21
-9.4849242399999412
31
0
0
ARC
5
153
100
AcDbEntity
8
0
100
AcDbCircle
10
9.1313708489997225
20
-9.1313708499998825
30
0
40
0.49999999999960021
210
0
220
-0
230
1
100
AcDbArc
50
45.000000000046057
51
224.99999991895857
0
LINE
5
154
100
AcDbEntity
8
0
100
AcDbLine
10
9.4849242395924289
20
-8.7778174594066076
30
0
11
9.992809956999622
21
-9.2857031759999131
31
0
0
ARC
5
155
100
AcDbEntity
8
0
100
AcDbCircle
10
7.9999999999995275
20
-7.9999999999998126
30
0
40
2.3715657657959777
210
0
220
0
230
1
100
AcDbArc
50
302.82893426846607
51
327.17106573153404
0
SPLINE
5
156
100
AcDbEntity
8
0
100
AcDbSpline
70
0
71
3
72
12
73
8
74
0
42
0.000000001
43
0.0000000001
44
0.0000000001
40
-0.15415966693538358
40
-0.15415966693538358
40
-0.15415966693538358
40
-0.15415966693538358
40
-0.15377549231056839
40
-0.15377549231056839
40
-0.13995271276138066
40
-0.13995271276138066
40
-0.12927066010135144
40
-0.12927066010135144
40
-0.12927066010135144
40
-0.12927066010135144
10
-10.367118212815285
20
-3.2243993807463767
30
0
10
-10.368155238761574
20
-3.2236379885904398
30
0
10
-10.369189573465292
20
-3.2228778527590407
30
0
10
-10.407331251472556
20
-3.1948119272209397
30
0
10
-10.446744817587046
20
-3.1645695350721326
30
0
10
-10.511755925713828
20
-3.1124718649195415
30
0
10
-10.538467523699637
20
-3.0902752954941093
30
0
10
-10.561865813903069
20
-3.0703124208417876
30
0
0
SPLINE
5
157
100
AcDbEntity
8
0
100
AcDbSpline
70
0
71
3
72
14
73
10
74
0
42
0.000000001
43
0.0000000001
44
0.0000000001
40
0
40
0
40
0
40
0
40
0.33333333333330001
40
0.33333333333330001
40
0.33333333333330001
40
0.66666666666670005
40
0.66666666666670005
40
0.66666666666670005
40
1
40
1
40
1
40
1
10
-10.561865813882036
20
-3.0703124208582722
30
0
10
-10.559023734819561
20
-3.0624701597838566
30
0
10
-10.556180523211651
20
-3.0546378216550352
30
0
10
-10.553336167092766
20
-3.0468154069467346
30
0
10
-10.550491810973881
20
-3.038992992238434
30
0
10
-10.547646310345158
20
-3.0311805009506543
30
0
10
-10.544799653596328
20
-3.0233779331348387
30
0
10
-10.541952996847499
20
-3.0155753653190231
30
0
10
-10.5391051839797
20
-3.007782720975456
30
0
10
-10.53625620374703
20
-2.9999999997002647
30
0
0
SPLINE
5
158
100
AcDbEntity
8
0
100
AcDbSpline
70
0
71
3
72
14
73
10
74
0
42
0.000000001
43
0.0000000001
44
0.0000000001
40
0
40
0
40
0
40
0
40
0.33333333333330001
40
0.33333333333330001
40
0.33333333333330001
40
0.66666666666670005
40
0.66666666666670005
40
0.66666666666670005
40
1
40
1
40
1
40
1
10
-10.53625620374703
20
2.9999999997002647
30
0
10
-10.539105183981974
20
3.0077827209782981
30
0
10
-10.541952996852046
20
3.0155753653238548
30
0
10
-10.544799653601444
20
3.0233779331405231
30
0
10
-10.547646310350842
20
3.0311805009571913
30
0
10
-10.550491810979565
20
3.038992992244971
30
0
10
-10.553336167097882
20
3.0468154069524189
30
0
10
-10.556180523216199
20
3.0546378216598669
30
0
10
-10.559023734822404
20
3.062470159786983
30
0
10
-10.561865813882036
20
3.0703124208585564
30
0
0
SPLINE
5
159
100
AcDbEntity
8
0
100
AcDbSpline
70
0
71
3
72
12
73
8
74
0
42
0.000000001
43
0.0000000001
44
0.0000000001
40
0.12927066010134669
40
0.12927066010134669
40
0.12927066010134669
40
0.12927066010134669
40
0.13995271276138066
40
0.13995271276138066
40
0.15377549231056842
40
0.15377549231056842
40
0.15415966693546648
40
0.15415966693546648
40
0.15415966693546648
40
0.15415966693546648
10
-10.561865813903637
20
3.0703124208415034
30
0
10
-10.538467523699637
20
3.0902752954941093
30
0
10
-10.511755925713828
20
3.1124718649198257
30
0
10
-10.446744817587046
20
3.1645695350718483
30
0
10
-10.407331251471987
20
3.1948119272212239
30
0
10
-10.369189573465292
20
3.2228778527593249
30
0
10
-10.368155238761005
20
3.223637988590724
30
0
10
-10.367118212814717
20
3.2243993807469451
30
0
0
ARC
5
160
100
AcDbEntity
8
0
100
AcDbCircle
10
-8.0000000000001137
20
0
30
0
40
3.9999999999998637
210
0
220
0
230
1
100
AcDbArc
50
-126.28339264646627
51
126.28339264645493
0
SPLINE
5
161
100
AcDbEntity
8
0
100
AcDbSpline
70
0
71
3
72
12
73
8
74
0
42
0.000000001
43
0.0000000001
44
0.0000000001
40
-0.15415966686996826
40
-0.15415966686996826
40
-0.15415966686996826
40
-0.15415966686996826
40
-0.15377549228858514
40
-0.15377549228858514
40
-0.13995271274236709
40
-0.13995271274236709
40
-0.12927066004039758
40
-0.12927066004039758
40
-0.12927066004039758
40
-0.12927066004039758
10
10.367118212164428
20
3.2243993812244298
30
0
10
10.368155237993051
20
3.223637989154895
30
0
10
10.369189572579671
20
3.2228778534098979
30
0
10
10.407331250470975
20
3.194811927975536
30
0
10
10.44674481658717
20
3.1645695358449188
30
0
10
10.511755924831618
20
3.1124718656326422
30
0
10
10.538467522919746
20
3.0902752961316082
30
0
10
10.561865813191957
20
3.0703124214286959
30
0
0
SPLINE
5
162
100
AcDbEntity
8
0
100
AcDbSpline
70
0
71
3
72
10
73
6
74
0
42
0.000000001
43
0.0000000001
44
0.0000000001
40
0
40
0
40
0
40
0
40
0.33333333333330001
40
0.66666666666670005
40
1
40
1
40
1
40
1
10
10.561865812999258
20
3.0703124210000965
30
0
10
10.559023734999755
20
3.0624701600001458
30
0
10
10.553337310999495
20
3.0468054840002878
30
0
10
10.544800808999639
20
3.0233680100002402
30
0
10
10.53910518299972
20
3.0077827210001828
30
0
10
10.536256202999539
20
3.0000000000001137
30
0
0
SPLINE
5
163
100
AcDbEntity
8
0
100
AcDbSpline
70
0
71
3
72
10
73
6
74
0
42
0.000000001
43
0.0000000001
44
0.0000000001
40
0
40
0
40
0
40
0
40
0.33333333333330001
40
0.66666666666670005
40
1
40
1
40
1
40
1
10
10.536256202999539
20
-2.9999999999998295
30
0
10
10.53910518299972
20
-3.0077827209998986
30
0
10
10.544800808999639
20
-3.023368009999956
30
0
10
10.553337310999495
20
-3.0468054840000036
30
0
10
10.559023734999755
20
-3.0624701599998616
30
0
10
10.561865812999258
20
-3.0703124209998123
30
0
0
SPLINE
5
164
100
AcDbEntity
8
0
100
AcDbSpline
70
0
71
3
72
12
73
8
74
0
42
0.000000001
43
0.0000000001
44
0.0000000001
40
0.12927066004042359
40
0.12927066004042359
40
0.12927066004042359
40
0.12927066004042359
40
0.13995271274236704
40
0.13995271274236704
40
0.15377549228858509
40
0.15377549228858509
40
0.15415966686990307
40
0.15415966686990307
40
0.15415966686990307
40
0.15415966686990307
10
10.561865813191389
20
-3.0703124214292643
30
0
10
10.538467522919177
20
-3.0902752961318924
30
0
10
10.51175592483105
20
-3.1124718656326422
30
0
10
10.44674481658717
20
-3.1645695358449188
30
0
10
10.407331250470975
20
-3.194811927975536
30
0
10
10.369189572579671
20
-3.2228778534098979
30
0
10
10.368155237993051
20
-3.223637989154895
30
0
10
10.367118212164428
20
-3.2243993812241456
30
0
0
ARC
5
165
100
AcDbEntity
8
0
100
AcDbCircle
10
7.9999999999995453
20
-1.1102230246251565e-15
30
0
40
4.0000000000003952
210
0
220
-0
230
1
100
AcDbArc
50
53.716607365094589
51
306.2833926349079
0
ENDSEC
0
SECTION
2
OBJECTS
0
DICTIONARY
5
C
100
AcDbDictionary
3
ACAD_GROUP
350
D
3
ACAD_MLINESTYLE
350
17
0
DICTIONARY
5
D
100
AcDbDictionary
0
DICTIONARY
5
1A
330
C
100
AcDbDictionary
0
DICTIONARY
5
17
100
AcDbDictionary
0
ENDSEC
0
EOF
