0
SECTION
2
HEADER
9
$INSUNITS
70
4
9
$ACADVER
1
AC1014
9
$HANDSEED
5
FFFF
0
ENDSEC
0
SECTION
2
TABLES
0
TABLE
2
VPORT
5
8
100
AcDbSymbolTable
0
ENDTAB
0
TABLE
2
LTYPE
5
5
100
AcDbSymbolTable
0
LTYPE
5
14
100
AcDbSymbolTableRecord
100
AcDbLinetypeTableRecord
2
BYBLOCK
70
0
0
LTYPE
5
15
100
AcDbSymbolTableRecord
100
AcDbLinetypeTableRecord
2
BYLAYER
70
0
0
ENDTAB
0
TABLE
2
LAYER
5
2
100
AcDbSymbolTable
70
2
0
LAYER
5
50
100
AcDbSymbolTableRecord
100
AcDbLayerTableRecord
2
0
70
0
6
CONTINUOUS
0
ENDTAB
0
TABLE
2
STYLE
5
3
100
AcDbSymbolTable
70
1
0
STYLE
5
11
100
AcDbSymbolTableRecord
100
AcDbTextStyleTableRecord
2
STANDARD
70
0
0
ENDTAB
0
TABLE
2
VIEW
5
6
100
AcDbSymbolTable
70
0
0
ENDTAB
0
TABLE
2
UCS
5
7
100
AcDbSymbolTable
70
0
0
ENDTAB
0
TABLE
2
APPID
5
9
100
AcDbSymbolTable
70
2
0
APPID
5
12
100
AcDbSymbolTableRecord
100
AcDbRegAppTableRecord
2
ACAD
70
0
0
ENDTAB
0
TABLE
2
DIMSTYLE
5
A
100
AcDbSymbolTable
70
1
0
ENDTAB
0
TABLE
2
BLOCK_RECORD
5
1
100
AcDbSymbolTable
70
1
0
BLOCK_RECORD
5
1F
100
AcDbSymbolTableRecord
100
AcDbBlockTableRecord
2
*MODEL_SPACE
0
BLOCK_RECORD
5
1B
100
AcDbSymbolTableRecord
100
AcDbBlockTableRecord
2
*PAPER_SPACE
0
ENDTAB
0
ENDSEC
0
SECTION
2
BLOCKS
0
BLOCK
5
20
100
AcDbEntity
100
AcDbBlockBegin
2
*MODEL_SPACE
0
ENDBLK
5
21
100
AcDbEntity
100
AcDbBlockEnd
0
BLOCK
5
1C
100
AcDbEntity
100
AcDbBlockBegin
2
*PAPER_SPACE
0
ENDBLK
5
1D
100
AcDbEntity
100
AcDbBlockEnd
0
ENDSEC
0
SECTION
2
ENTITIES
0
LWPOLYLINE
5
100
100
AcDbEntity
8
0
100
AcDbPolyline
90
18
70
1
43
0.0
10
23.000000000000028
20
25
10
25.000000000000028
20
23.000000000000004
10
25.000000000000028
20
-23.000000000000004
10
23.000000000000028
20
-25
10
16.500000000000018
20
-25
10
15.500000000000018
20
-24.000000000000004
10
12.500000000000014
20
-24.000000000000004
10
11.500000000000014
20
-25
10
2.5000000000000036
20
-25
10
-8.2500000000000089
20
-25
10
-11.500000000000014
20
-25
10
-12.500000000000014
20
-24.000000000000004
10
-15.500000000000018
20
-24.000000000000004
10
-16.500000000000018
20
-25
10
-23.000000000000028
20
-25
10
-25.000000000000028
20
-23.000000000000004
10
-25.000000000000028
20
23.000000000000004
10
-23.000000000000028
20
25
0
CIRCLE
5
101
100
AcDbEntity
8
0
100
AcDbCircle
10
22.000006800000026
20
22.0508068
30
0
40
1.5499994400000001
210
0
220
0
230
1
0
CIRCLE
5
102
100
AcDbEntity
8
0
100
AcDbCircle
10
18.000007180000022
20
22.0508068
30
0
40
1.00000054
210
0
220
0
230
1
0
CIRCLE
5
103
100
AcDbEntity
8
0
100
AcDbCircle
10
-17.780007620000021
20
12.750789840000001
30
0
40
0.42500042000000005
210
0
220
0
230
1
0
CIRCLE
5
104
100
AcDbEntity
8
0
100
AcDbCircle
10
-17.780007620000021
20
15.290792379999999
30
0
40
0.42500042000000005
210
0
220
0
230
1
0
CIRCLE
5
105
100
AcDbEntity
8
0
100
AcDbCircle
10
-18.000007180000022
20
22.0508068
30
0
40
1.00000054
210
0
220
0
230
1
0
CIRCLE
5
106
100
AcDbEntity
8
0
100
AcDbCircle
10
-17.780007620000021
20
10.2107873
30
0
40
0.42500042000000005
210
0
220
0
230
1
0
CIRCLE
5
107
100
AcDbEntity
8
0
100
AcDbCircle
10
-17.780007620000021
20
2.5907796799999998
30
0
40
0.42500042000000005
210
0
220
0
230
1
0
CIRCLE
5
108
100
AcDbEntity
8
0
100
AcDbCircle
10
-17.780007620000021
20
7.6707847600000001
30
0
40
0.42500042000000005
210
0
220
0
230
1
0
CIRCLE
5
109
100
AcDbEntity
8
0
100
AcDbCircle
10
-17.780007620000021
20
5.1307822200000004
30
0
40
0.42500042000000005
210
0
220
0
230
1
0
CIRCLE
5
110
100
AcDbEntity
8
0
100
AcDbCircle
10
-17.780007620000021
20
-5.0292279400000002
30
0
40
0.42500042000000005
210
0
220
0
230
1
0
CIRCLE
5
111
100
AcDbEntity
8
0
100
AcDbCircle
10
-17.780007620000021
20
0.050777139999990006
30
0
40
0.42500042000000005
210
0
220
0
230
1
0
CIRCLE
5
112
100
AcDbEntity
8
0
100
AcDbCircle
10
22.000006800000026
20
-21.949222040000002
30
0
40
1.5499994400000001
210
0
220
0
230
1
0
CIRCLE
5
113
100
AcDbEntity
8
0
100
AcDbCircle
10
-17.780007620000021
20
-7.5692304799999999
30
0
40
0.42500042000000005
210
0
220
0
230
1
0
CIRCLE
5
114
100
AcDbEntity
8
0
100
AcDbCircle
10
18.000007180000022
20
-21.949222040000002
30
0
40
1.00000054
210
0
220
0
230
1
0
CIRCLE
5
115
100
AcDbEntity
8
0
100
AcDbCircle
10
-17.780007620000021
20
-10.10923302
30
0
40
0.42500042000000005
210
0
220
0
230
1
0
CIRCLE
5
116
100
AcDbEntity
8
0
100
AcDbCircle
10
-17.780007620000021
20
-2.4892254000000005
30
0
40
0.42500042000000005
210
0
220
0
230
1
0
CIRCLE
5
117
100
AcDbEntity
8
0
100
AcDbCircle
10
-18.000022420000022
20
-21.949222040000002
30
0
40
1.00000054
210
0
220
0
230
1
0
CIRCLE
5
118
100
AcDbEntity
8
0
100
AcDbCircle
10
-17.780007620000021
20
-12.649235560000001
30
0
40
0.42500042000000005
210
0
220
0
230
1
0
CIRCLE
5
119
100
AcDbEntity
8
0
100
AcDbCircle
10
-17.780007620000021
20
-15.189238100000003
30
0
40
0.42500042000000005
210
0
220
0
230
1
0
CIRCLE
5
120
100
AcDbEntity
8
0
100
AcDbCircle
10
-17.780007620000021
20
17.830794919999999
30
0
40
0.37500052000000006
210
0
220
0
230
1
0
CIRCLE
5
121
100
AcDbEntity
8
0
100
AcDbCircle
10
-20.320007620000023
20
17.830794919999999
30
0
40
0.37500052000000006
210
0
220
0
230
1
0
CIRCLE
5
122
100
AcDbEntity
8
0
100
AcDbCircle
10
-20.320007620000023
20
12.750789840000001
30
0
40
0.42500042000000005
210
0
220
0
230
1
0
CIRCLE
5
123
100
AcDbEntity
8
0
100
AcDbCircle
10
-20.320007620000023
20
15.290792379999999
30
0
40
0.42500042000000005
210
0
220
0
230
1
0
CIRCLE
5
124
100
AcDbEntity
8
0
100
AcDbCircle
10
-20.320007620000023
20
10.2107873
30
0
40
0.42500042000000005
210
0
220
0
230
1
0
CIRCLE
5
125
100
AcDbEntity
8
0
100
AcDbCircle
10
-22.000006800000026
20
22.0508068
30
0
40
1.5499994400000001
210
0
220
0
230
1
0
CIRCLE
5
126
100
AcDbEntity
8
0
100
AcDbCircle
10
-20.320007620000023
20
2.5907796799999998
30
0
40
0.42500042000000005
210
0
220
0
230
1
0
CIRCLE
5
127
100
AcDbEntity
8
0
100
AcDbCircle
10
-20.320007620000023
20
7.6707847600000001
30
0
40
0.42500042000000005
210
0
220
0
230
1
0
CIRCLE
5
128
100
AcDbEntity
8
0
100
AcDbCircle
10
-20.320007620000023
20
5.1307822200000004
30
0
40
0.42500042000000005
210
0
220
0
230
1
0
CIRCLE
5
129
100
AcDbEntity
8
0
100
AcDbCircle
10
-20.320007620000023
20
-5.0292279400000002
30
0
40
0.42500042000000005
210
0
220
0
230
1
0
CIRCLE
5
130
100
AcDbEntity
8
0
100
AcDbCircle
10
-20.320007620000023
20
0.050777139999990006
30
0
40
0.42500042000000005
210
0
220
0
230
1
0
CIRCLE
5
131
100
AcDbEntity
8
0
100
AcDbCircle
10
-17.780007620000021
20
-17.72924064
30
0
40
0.37500052000000006
210
0
220
0
230
1
0
CIRCLE
5
132
100
AcDbEntity
8
0
100
AcDbCircle
10
-20.320007620000023
20
-7.5692304799999999
30
0
40
0.42500042000000005
210
0
220
0
230
1
0
CIRCLE
5
133
100
AcDbEntity
8
0
100
AcDbCircle
10
-20.320007620000023
20
-17.72924064
30
0
40
0.37500052000000006
210
0
220
0
230
1
0
CIRCLE
5
134
100
AcDbEntity
8
0
100
AcDbCircle
10
-20.320007620000023
20
-10.10923302
30
0
40
0.42500042000000005
210
0
220
0
230
1
0
CIRCLE
5
135
100
AcDbEntity
8
0
100
AcDbCircle
10
-20.320007620000023
20
-2.4892254000000005
30
0
40
0.42500042000000005
210
0
220
0
230
1
0
CIRCLE
5
136
100
AcDbEntity
8
0
100
AcDbCircle
10
-20.320007620000023
20
-12.649235560000001
30
0
40
0.42500042000000005
210
0
220
0
230
1
0
CIRCLE
5
137
100
AcDbEntity
8
0
100
AcDbCircle
10
-20.320007620000023
20
-15.189238100000003
30
0
40
0.42500042000000005
210
0
220
0
230
1
0
CIRCLE
5
138
100
AcDbEntity
8
0
100
AcDbCircle
10
-22.000022040000026
20
-21.949222040000002
30
0
40
1.5499994400000001
210
0
220
0
230
1
0
LWPOLYLINE
5
139
100
AcDbEntity
8
0
100
AcDbPolyline
90
18
70
1
43
0.0
10
23.000000000000025
20
25
10
25.000000000000028
20
23.000000000000004
10
25.000000000000028
20
-23.000000000000004
10
23.000000000000028
20
-25
10
16.500000000000018
20
-25
10
15.500000000000016
20
-24.000000000000004
10
12.500000000000014
20
-24.000000000000004
10
11.500000000000012
20
-25
10
2.5000000000000044
20
-25
10
-8.2500000000000107
20
-25
10
-11.500000000000018
20
-25
10
-12.500000000000014
20
-24.000000000000004
10
-15.500000000000021
20
-24.000000000000004
10
-16.500000000000021
20
-25
10
-23.000000000000025
20
-25
10
-25.000000000000028
20
-23.000000000000004
10
-25.000000000000028
20
23.000000000000004
10
-23.000000000000025
20
25
0
CIRCLE
5
140
100
AcDbEntity
8
0
100
AcDbCircle
10
22.000006800000026
20
22.0508068
30
0
40
1.5499994400000017
210
0
220
0
230
1
0
CIRCLE
5
141
100
AcDbEntity
8
0
100
AcDbCircle
10
18.000007180000022
20
22.0508068
30
0
40
1.0000005400000012
210
0
220
0
230
1
0
CIRCLE
5
142
100
AcDbEntity
8
0
100
AcDbCircle
10
-17.780007620000021
20
12.750789840000001
30
0
40
0.42500042000000049
210
0
220
0
230
1
0
CIRCLE
5
143
100
AcDbEntity
8
0
100
AcDbCircle
10
-17.780007620000021
20
15.290792379999999
30
0
40
0.42500042000000049
210
0
220
0
230
1
0
CIRCLE
5
144
100
AcDbEntity
8
0
100
AcDbCircle
10
-18.000007180000022
20
22.0508068
30
0
40
1.0000005400000012
210
0
220
0
230
1
0
CIRCLE
5
145
100
AcDbEntity
8
0
100
AcDbCircle
10
-17.780007620000021
20
10.2107873
30
0
40
0.42500042000000049
210
0
220
0
230
1
0
CIRCLE
5
146
100
AcDbEntity
8
0
100
AcDbCircle
10
-17.780007620000021
20
2.5907796799999998
30
0
40
0.42500042000000049
210
0
220
0
230
1
0
CIRCLE
5
147
100
AcDbEntity
8
0
100
AcDbCircle
10
-17.780007620000021
20
7.6707847600000001
30
0
40
0.42500042000000049
210
0
220
0
230
1
0
CIRCLE
5
148
100
AcDbEntity
8
0
100
AcDbCircle
10
-17.780007620000021
20
5.1307822200000004
30
0
40
0.42500042000000049
210
0
220
0
230
1
0
CIRCLE
5
149
100
AcDbEntity
8
0
100
AcDbCircle
10
-17.780007620000021
20
-5.0292279400000002
30
0
40
0.42500042000000049
210
0
220
0
230
1
0
CIRCLE
5
150
100
AcDbEntity
8
0
100
AcDbCircle
10
-17.780007620000021
20
0.050777139999990006
30
0
40
0.42500042000000049
210
0
220
0
230
1
0
CIRCLE
5
151
100
AcDbEntity
8
0
100
AcDbCircle
10
22.000006800000026
20
-21.949222040000002
30
0
40
1.5499994400000017
210
0
220
0
230
1
0
CIRCLE
5
152
100
AcDbEntity
8
0
100
AcDbCircle
10
-17.780007620000021
20
-7.5692304799999999
30
0
40
0.42500042000000049
210
0
220
0
230
1
0
CIRCLE
5
153
100
AcDbEntity
8
0
100
AcDbCircle
10
18.000007180000022
20
-21.949222040000002
30
0
40
1.0000005400000012
210
0
220
0
230
1
0
CIRCLE
5
154
100
AcDbEntity
8
0
100
AcDbCircle
10
-17.780007620000021
20
-10.10923302
30
0
40
0.42500042000000049
210
0
220
0
230
1
0
CIRCLE
5
155
100
AcDbEntity
8
0
100
AcDbCircle
10
-17.780007620000021
20
-2.4892254000000005
30
0
40
0.42500042000000049
210
0
220
0
230
1
0
CIRCLE
5
156
100
AcDbEntity
8
0
100
AcDbCircle
10
-18.000022420000022
20
-21.949222040000002
30
0
40
1.0000005400000012
210
0
220
0
230
1
0
CIRCLE
5
157
100
AcDbEntity
8
0
100
AcDbCircle
10
-17.780007620000021
20
-12.649235560000001
30
0
40
0.42500042000000049
210
0
220
0
230
1
0
CIRCLE
5
158
100
AcDbEntity
8
0
100
AcDbCircle
10
-17.780007620000021
20
-15.189238100000003
30
0
40
0.42500042000000049
210
0
220
0
230
1
0
CIRCLE
5
159
100
AcDbEntity
8
0
100
AcDbCircle
10
-17.780007620000021
20
17.830794919999999
30
0
40
0.3750005200000005
210
0
220
0
230
1
0
CIRCLE
5
160
100
AcDbEntity
8
0
100
AcDbCircle
10
-20.320007620000023
20
17.830794919999999
30
0
40
0.3750005200000005
210
0
220
0
230
1
0
CIRCLE
5
161
100
AcDbEntity
8
0
100
AcDbCircle
10
-20.320007620000023
20
12.750789840000001
30
0
40
0.42500042000000049
210
0
220
0
230
1
0
CIRCLE
5
162
100
AcDbEntity
8
0
100
AcDbCircle
10
-20.320007620000023
20
15.290792379999999
30
0
40
0.42500042000000049
210
0
220
0
230
1
0
CIRCLE
5
163
100
AcDbEntity
8
0
100
AcDbCircle
10
-20.320007620000023
20
10.2107873
30
0
40
0.42500042000000049
210
0
220
0
230
1
0
CIRCLE
5
164
100
AcDbEntity
8
0
100
AcDbCircle
10
-22.000006800000026
20
22.0508068
30
0
40
1.5499994400000017
210
0
220
0
230
1
0
CIRCLE
5
165
100
AcDbEntity
8
0
100
AcDbCircle
10
-20.320007620000023
20
2.5907796799999998
30
0
40
0.42500042000000049
210
0
220
0
230
1
0
CIRCLE
5
166
100
AcDbEntity
8
0
100
AcDbCircle
10
-20.320007620000023
20
7.6707847600000001
30
0
40
0.42500042000000049
210
0
220
0
230
1
0
CIRCLE
5
167
100
AcDbEntity
8
0
100
AcDbCircle
10
-20.320007620000023
20
5.1307822200000004
30
0
40
0.42500042000000049
210
0
220
0
230
1
0
CIRCLE
5
168
100
AcDbEntity
8
0
100
AcDbCircle
10
-20.320007620000023
20
-5.0292279400000002
30
0
40
0.42500042000000049
210
0
220
0
230
1
0
CIRCLE
5
169
100
AcDbEntity
8
0
100
AcDbCircle
10
-20.320007620000023
20
0.050777139999990006
30
0
40
0.42500042000000049
210
0
220
0
230
1
0
CIRCLE
5
170
100
AcDbEntity
8
0
100
AcDbCircle
10
-17.780007620000021
20
-17.72924064
30
0
40
0.3750005200000005
210
0
220
0
230
1
0
CIRCLE
5
171
100
AcDbEntity
8
0
100
AcDbCircle
10
-20.320007620000023
20
-7.5692304799999999
30
0
40
0.42500042000000049
210
0
220
0
230
1
0
CIRCLE
5
172
100
AcDbEntity
8
0
100
AcDbCircle
10
-20.320007620000023
20
-17.72924064
30
0
40
0.3750005200000005
210
0
220
0
230
1
0
CIRCLE
5
173
100
AcDbEntity
8
0
100
AcDbCircle
10
-20.320007620000023
20
-10.10923302
30
0
40
0.42500042000000049
210
0
220
0
230
1
0
CIRCLE
5
174
100
AcDbEntity
8
0
100
AcDbCircle
10
-20.320007620000023
20
-2.4892254000000005
30
0
40
0.42500042000000049
210
0
220
0
230
1
0
CIRCLE
5
175
100
AcDbEntity
8
0
100
AcDbCircle
10
-20.320007620000023
20
-12.649235560000001
30
0
40
0.42500042000000049
210
0
220
0
230
1
0
CIRCLE
5
176
100
AcDbEntity
8
0
100
AcDbCircle
10
-20.320007620000023
20
-15.189238100000003
30
0
40
0.42500042000000049
210
0
220
0
230
1
0
CIRCLE
5
177
100
AcDbEntity
8
0
100
AcDbCircle
10
-22.000022040000026
20
-21.949222040000002
30
0
40
1.5499994400000017
210
0
220
0
230
1
0
ENDSEC
0
SECTION
2
OBJECTS
0
DICTIONARY
5
C
100
AcDbDictionary
3
ACAD_GROUP
350
D
3
ACAD_MLINESTYLE
350
17
0
DICTIONARY
5
D
100
AcDbDictionary
0
DICTIONARY
5
1A
330
C
100
AcDbDictionary
0
DICTIONARY
5
17
100
AcDbDictionary
0
ENDSEC
0
EOF
